<svg width="42" height="38" viewBox="0 0 42 38" fill="none" xmlns="http://www.w3.org/2000/svg">
<path d="M35 24.7498C35.7292 22.979 36.125 21.0831 36.125 18.9998C36.125 17.4998 35.8958 16.0623 35.5 14.729C34.1458 15.0415 32.7292 15.2081 31.25 15.2081C28.2208 15.2114 25.2352 14.4863 22.5448 13.094C19.8545 11.7017 17.5384 9.68303 15.7917 7.20812C13.9231 11.7293 10.3982 15.366 5.93749 17.3748C5.85416 17.8956 5.85416 18.4581 5.85416 18.9998C5.85416 20.9888 6.24591 22.9583 7.00706 24.7958C7.76821 26.6334 8.88385 28.3031 10.2903 29.7095C13.1307 32.5499 16.9831 34.1456 21 34.1456C23.1875 34.1456 25.2917 33.6665 27.1875 32.8123C28.375 35.0831 28.9167 36.2081 28.875 36.2081C25.4583 37.354 22.8125 37.9165 21 37.9165C15.9583 37.9165 11.1458 35.9373 7.60416 32.3748C5.44998 30.2272 3.84868 27.5894 2.93749 24.6873H0.166656V15.2081H2.43749C3.12549 11.8592 4.70727 8.75898 7.01497 6.23644C9.32267 3.7139 12.2702 1.86314 15.5448 0.880534C18.8195 -0.102068 22.299 -0.179855 25.6143 0.655426C28.9296 1.49071 31.9569 3.2079 34.375 5.62479C37.0005 8.2399 38.7913 11.575 39.5208 15.2081H41.8333V24.6873H41.7083L34.2917 31.4998L23.25 30.2498V26.7706H33.3125L35 24.7498ZM15.3125 18.5206C15.9375 18.5206 16.5417 18.7706 16.9792 19.229C17.4188 19.6722 17.6655 20.2713 17.6655 20.8956C17.6655 21.52 17.4188 22.119 16.9792 22.5623C16.5417 22.9998 15.9375 23.2498 15.3125 23.2498C14 23.2498 12.9375 22.2081 12.9375 20.8956C12.9375 19.5831 14 18.5206 15.3125 18.5206ZM26.6667 18.5206C27.9792 18.5206 29.0208 19.5831 29.0208 20.8956C29.0208 22.2081 27.9792 23.2498 26.6667 23.2498C25.3542 23.2498 24.2917 22.2081 24.2917 20.8956C24.2917 20.2657 24.5419 19.6616 24.9873 19.2162C25.4327 18.7708 26.0368 18.5206 26.6667 18.5206Z" fill="url(#paint0_linear_55_856)"/>
<defs>
<linearGradient id="paint0_linear_55_856" x1="-0.412047" y1="0.968299" x2="42.8461" y2="0.968299" gradientUnits="userSpaceOnUse">
<stop stop-color="#E1C75C"/>
<stop offset="1" stop-color="#C2A013"/>
</linearGradient>
</defs>
</svg>
