<svg width="25" height="25" viewBox="0 0 25 25" fill="none" xmlns="http://www.w3.org/2000/svg">
<g clip-path="url(#clip0_94_2098)">
<path d="M1.29116 25.0001C0.961843 25.0001 0.632532 24.8748 0.38233 24.6227C-0.119956 24.1204 -0.119956 23.3061 0.38233 22.8038L22.8094 0.376715C23.3117 -0.125572 24.126 -0.125572 24.6283 0.376715C25.1306 0.879002 25.1306 1.69333 24.6283 2.19593L2.20155 24.6227C1.94946 24.8732 1.62015 25.0001 1.29116 25.0001Z" fill="white"/>
<path d="M23.7198 25.0001C23.3905 25.0001 23.0615 24.8748 22.811 24.6227L0.38233 2.19593C-0.119956 1.69333 -0.119956 0.879002 0.38233 0.376715C0.884617 -0.125572 1.69895 -0.125572 2.20155 0.376715L24.6283 22.8038C25.1306 23.3061 25.1306 24.1204 24.6283 24.6227C24.3762 24.8732 24.0473 25.0001 23.7198 25.0001Z" fill="white"/>
</g>
<defs>
<clipPath id="clip0_94_2098">
<rect width="25" height="25" fill="white"/>
</clipPath>
</defs>
</svg>
