<svg width="1440" height="715" viewBox="0 0 1440 715" fill="none" xmlns="http://www.w3.org/2000/svg">
<path d="M297.216 585.548L0 558.744V0H1440V558.744L1132.26 585.438C1076.65 590.262 1023.69 611.338 979.973 646.041C935.957 680.982 881.412 700 825.214 700H583.025C530.135 700 479.033 680.861 439.156 646.117C399.403 611.482 349.728 590.284 297.216 585.548Z" fill="url(#paint0_linear_1_15935)"/>
<path d="M297.216 585.548L0 558.744V0H1440V558.744L1132.26 585.438C1076.65 590.262 1023.69 611.338 979.973 646.041C935.957 680.982 881.412 700 825.214 700H583.025C530.135 700 479.033 680.861 439.156 646.117C399.403 611.482 349.728 590.284 297.216 585.548Z" fill="url(#paint1_linear_1_15935)" fill-opacity="0.2"/>
<path d="M-7.5 558.744V565.599L-0.673644 566.214L296.542 593.018C347.481 597.612 395.667 618.174 434.229 651.772C475.472 687.705 528.324 707.5 583.025 707.5H825.214C883.105 707.5 939.294 687.909 984.636 651.916C1027.2 618.127 1078.76 597.607 1132.91 592.91L1440.65 566.216L1447.5 565.622V558.744V0V-7.5H1440H0H-7.5V0V558.744Z" stroke="url(#paint2_linear_1_15935)" stroke-opacity="0.2" stroke-width="15"/>
<path d="M1330.74 463.197C1308.15 498.171 1269.41 518.713 1228.31 518.713H887.567C819.106 518.713 780.618 437.076 825.101 391.122C869.496 345.168 830.313 305.943 898.775 269.02C965.151 233.337 987.827 309.396 1048.99 259.634C1110.15 209.873 1199.21 214.566 1218.75 265.301C1238.3 316.037 1233.7 333.923 1275.23 345.168C1316.75 356.413 1357.24 420.341 1332.39 460.717C1331.78 461.603 1331.26 462.4 1330.74 463.197Z" fill="white" fill-opacity="0.16"/>
<path d="M1315.63 477.363C1279.74 480.462 1255.51 549.084 1165.76 507.822C1165.76 507.822 1175.58 477.895 1219.8 459.212C1263.85 440.618 1315.63 477.363 1315.63 477.363Z" fill="#A88F25"/>
<path d="M1178.01 502.687C1187.39 497.728 1197.12 493.478 1207.03 489.759C1209.46 488.785 1211.98 487.9 1214.5 487.103C1217.02 486.218 1219.54 485.421 1222.06 484.624C1224.58 483.827 1227.18 483.119 1229.7 482.41C1231 482.056 1232.22 481.702 1233.52 481.348L1237.35 480.374L1241.26 479.488L1245.17 478.691L1249.08 477.895C1250.38 477.629 1251.68 477.452 1252.98 477.275C1255.59 476.921 1258.2 476.389 1260.89 476.212C1263.5 475.947 1266.19 475.504 1268.8 475.415C1279.4 474.618 1290.08 474.795 1300.51 476.566C1289.91 476.301 1279.48 476.921 1269.06 478.249L1267.15 478.514L1265.23 478.78L1261.33 479.4C1258.72 479.754 1256.2 480.285 1253.59 480.728C1252.29 480.994 1250.99 481.171 1249.77 481.436L1245.95 482.233L1242.12 483.03L1238.3 484.004L1234.48 484.889C1233.18 485.244 1231.96 485.509 1230.66 485.863L1226.83 486.837C1225.53 487.192 1224.31 487.546 1223.01 487.9C1220.49 488.608 1217.97 489.317 1215.45 490.114C1212.93 490.91 1210.41 491.619 1207.89 492.416C1197.9 495.603 1187.91 499.145 1178.01 502.687Z" fill="#CEAF2E"/>
<path d="M1319.97 360.663C1276.18 392.538 1296.42 499.499 1150.2 516.323C1150.2 516.323 1140.47 470.191 1183.22 411.841C1225.96 353.579 1319.97 360.663 1319.97 360.663Z" fill="#CEAF2E"/>
<path d="M1159.94 503.484C1166.28 489.405 1174.18 476.035 1183.05 463.373C1191.91 450.712 1201.81 438.758 1212.58 427.69C1223.36 416.622 1235.09 406.44 1247.77 397.674C1260.37 388.908 1274.01 381.293 1288.52 376.6C1275.05 383.773 1262.54 392.361 1250.72 401.747C1238.91 411.221 1227.7 421.404 1217.19 432.295C1206.59 443.097 1196.6 454.608 1187.13 466.472C1177.57 478.337 1168.62 490.733 1159.94 503.484Z" fill="#A88F25"/>
<path d="M847.428 467.889C883.049 473.556 902.423 543.683 994.777 509.062C994.777 509.062 987.044 478.514 944.299 456.733C901.554 434.862 847.428 467.889 847.428 467.889Z" fill="#A88F25"/>
<path d="M982.961 502.953C973.231 498.703 963.587 494.452 953.856 490.556C951.424 489.583 948.991 488.697 946.472 487.723C944.039 486.749 941.519 485.864 939.087 484.978C937.87 484.535 936.654 484.093 935.351 483.65L931.615 482.41C930.399 481.968 929.096 481.525 927.879 481.171L924.143 480.02L920.408 478.78L916.672 477.718L912.936 476.655C911.72 476.301 910.416 476.035 909.113 475.681C906.594 475.061 904.074 474.353 901.468 473.822L897.645 472.936L895.734 472.494L893.822 472.139C883.57 470.103 873.145 468.686 862.632 468.243C873.145 467.181 883.831 467.801 894.344 469.306C896.95 469.572 899.556 470.191 902.163 470.634C904.769 471.077 907.376 471.697 909.982 472.316C911.285 472.582 912.588 472.936 913.892 473.29L917.714 474.353L921.537 475.416L925.36 476.567L929.182 477.806C930.399 478.249 931.702 478.692 932.918 479.134C935.438 480.02 937.957 480.905 940.39 481.879C942.823 482.853 945.342 483.827 947.775 484.89C950.207 485.952 952.64 486.926 955.073 488.077C964.543 492.416 973.926 497.374 982.961 502.953Z" fill="#CEAF2E"/>
<path d="M871.059 355.793C910.503 389.085 884.265 489.051 1021.8 514.995C1021.8 514.995 1034.05 471.874 997.383 413.7C960.719 355.439 871.059 355.793 871.059 355.793Z" fill="#CEAF2E"/>
<path d="M1013.46 502.067C1005.98 489.405 998.339 477.098 990.173 465.144C981.919 453.191 973.231 441.68 963.848 430.701C954.552 419.721 944.648 409.273 934.048 399.445C923.449 389.705 912.154 380.762 899.904 372.882C913.371 378.283 925.795 386.34 937.263 395.549C948.731 404.757 959.156 415.206 968.626 426.451C978.096 437.696 986.697 449.738 994.256 462.399C1001.81 475.061 1008.42 488.254 1013.46 502.067Z" fill="#A88F25"/>
<path d="M1103.12 448.852C1098.16 454.785 1093.73 464.702 1090.95 466.295C1088.17 467.889 1083.48 468.42 1079.05 482.942C1074.62 497.463 1096.95 495.515 1096.95 495.515C1096.95 495.515 1106.51 489.936 1110.33 476.389L1119.88 467.712L1103.12 448.852Z" fill="#F6A397"/>
<path d="M1085.83 493.921C1085.83 493.921 1093.04 491.53 1099.21 484.89C1105.38 478.249 1106.16 466.472 1106.16 466.472L1109.11 472.051L1115.02 465.587L1117.89 465.321L1119.97 467.712L1110.41 476.389C1106.59 489.937 1097.04 495.515 1097.04 495.515C1097.04 495.515 1090.87 496.046 1085.65 494.452C1085.65 494.098 1085.83 493.921 1085.83 493.921Z" fill="#D65863"/>
<path d="M1136.57 396.877C1129.7 402.013 1125.62 405.643 1122.23 412.638C1118.84 419.544 1097.47 444.514 1096.17 446.727C1094.78 448.941 1108.16 472.493 1118.84 478.337C1118.84 478.337 1135 459.389 1144.3 452.217C1153.6 445.045 1150.47 419.633 1146.12 411.044C1141.78 402.455 1136.57 396.877 1136.57 396.877Z" fill="#4F4F4F"/>
<path d="M1136.31 442.743V428.576C1136.31 428.576 1138.13 427.867 1139.52 432.649C1140.13 434.597 1140.04 436.545 1139.78 438.315L1150.21 430.347C1150.64 439.289 1149.25 448.321 1144.3 452.128C1135 459.3 1118.84 478.249 1118.84 478.249C1116.06 476.743 1113.2 474.087 1110.33 470.9C1116.84 464.259 1129.36 451.42 1136.31 442.743Z" fill="#3F3F3F"/>
<path d="M1070.02 489.936C1068.28 490.468 1066.89 491.353 1066.89 493.655C1066.89 495.957 1067.24 499.588 1068.1 501.004C1068.97 502.421 1073.32 503.307 1073.32 503.307C1073.32 503.307 1073.06 493.921 1072.1 492.15C1071.23 490.291 1070.02 489.936 1070.02 489.936Z" fill="#F6A397"/>
<path d="M1068.1 500.916C1067.84 500.562 1067.67 499.942 1067.5 499.234C1068.45 500.208 1068.8 500.208 1069.93 500.296L1073.23 501.359C1073.32 502.421 1073.32 503.13 1073.32 503.13C1073.32 503.13 1068.97 502.333 1068.1 500.916Z" fill="#D65863"/>
<path d="M1074.19 486.483C1072.01 486.749 1069.84 488.343 1069.84 490.645C1069.84 492.947 1069.06 499.322 1069.84 500.296C1070.62 501.359 1074.36 504.192 1075.66 504.458C1076.97 504.723 1079.23 504.281 1078.88 503.572C1078.7 502.864 1074.19 486.483 1074.19 486.483Z" fill="#F6A397"/>
<path d="M1069.58 498.614C1071.23 500.473 1075.4 500.296 1075.4 500.296C1075.4 500.296 1077.23 502.333 1077.49 502.952C1077.66 503.307 1078.36 503.838 1078.44 504.281C1077.75 504.546 1076.53 504.635 1075.75 504.458C1074.45 504.192 1070.8 501.447 1069.93 500.385L1069.58 498.614Z" fill="#D65863"/>
<path d="M1082.35 482.676C1075.75 483.03 1074.45 483.65 1074.27 486.395C1074.01 489.14 1074.19 497.197 1075.06 499.234C1075.92 501.27 1076.36 503.13 1077.49 504.192C1078.53 505.255 1080.18 505.255 1080.18 505.255C1080.18 505.255 1083.83 499.853 1084 495.249C1084 490.822 1082.35 482.676 1082.35 482.676Z" fill="#F6A397"/>
<path d="M1078.53 500.827C1078.88 498.968 1079.57 496.931 1079.75 490.733C1079.75 488.343 1081.92 500.65 1080.96 504.015C1080.53 504.812 1080.18 505.343 1080.18 505.343C1080.18 505.343 1078.53 505.343 1077.49 504.281C1076.45 503.218 1075.92 501.359 1075.06 499.322C1074.97 499.145 1074.97 499.057 1074.88 498.879C1075.23 499.942 1076.62 500.739 1078.53 500.827Z" fill="#D65863"/>
<path d="M1096.86 496.577C1096.43 500.296 1091.65 501.713 1091.04 503.572C1090.52 505.432 1090.87 507.202 1090 507.645C1089.04 508.088 1085.22 505.874 1085.39 503.395C1085.39 503.395 1084.35 505.52 1082.18 505.874C1079.92 506.228 1079.4 504.635 1079.75 502.067C1080.09 499.588 1080.09 498.26 1080.01 495.249C1079.92 492.239 1079.22 489.494 1080.53 486.218C1081.83 482.941 1083.66 480.02 1087.13 480.551C1090.69 481.082 1092.87 485.686 1094.78 487.192C1096.69 488.785 1097.3 492.327 1096.86 496.577Z" fill="#F6A397"/>
<path d="M1085.31 503.395C1085.48 498.614 1085.74 494.718 1085.74 493.921C1085.74 493.124 1085.48 488.077 1087.3 487.812C1087.57 487.723 1091.48 490.291 1091.56 491.973C1091.65 493.655 1091.56 496.754 1090.35 497.551C1089.13 498.437 1085.31 503.395 1085.31 503.395Z" fill="#D65863"/>
<path d="M1246.12 407.06C1239.09 397.94 1236.65 397.054 1229.44 392.716C1222.14 388.377 1194.69 377.486 1188.96 376.069C1183.31 374.653 1160.37 385.544 1152.9 388.997C1145.43 392.45 1135.87 395.903 1134.22 399.268C1128.75 410.601 1139.52 426.628 1139.61 460.186C1139.61 477.806 1143.6 517.385 1143.6 517.385C1143.6 517.385 1230.05 517.562 1231.27 515.703C1232.48 513.843 1235.52 450.623 1237 437.696C1238.48 424.768 1246.12 407.06 1246.12 407.06Z" fill="#4F4F4F"/>
<path d="M1134.48 416.976C1133.87 414.851 1133.44 412.726 1133.09 410.513C1132.83 408.299 1132.57 406.174 1132.57 403.961C1133.18 406.086 1133.61 408.211 1133.96 410.424C1134.31 412.549 1134.57 414.763 1134.48 416.976Z" fill="#3F3F3F"/>
<path d="M1166.89 403.784C1163.59 402.544 1155.59 404.758 1154.2 405.2C1152.73 405.732 1155.07 399.445 1155.94 398.648C1156.81 397.851 1158.11 396.08 1160.72 396.877C1163.32 397.674 1165.5 400.773 1165.93 401.747C1166.19 402.721 1166.89 403.784 1166.89 403.784Z" fill="#3F3F3F"/>
<path d="M1194.69 409.008C1193.47 408.919 1186.52 405.731 1184.87 404.846C1183.22 403.961 1175.66 403.695 1170.62 405.112C1170.62 405.112 1180.35 398.382 1186 398.471C1191.65 398.559 1193.82 400.596 1194.25 402.455C1194.78 404.315 1194.69 409.008 1194.69 409.008Z" fill="#3F3F3F"/>
<path d="M1157.5 503.218C1158.46 502.333 1214.85 504.104 1216.06 498.171C1217.19 492.15 1217.97 481.259 1217.97 481.259C1211.2 484.978 1201.29 483.384 1201.29 483.384C1207.89 481.171 1217.36 470.191 1217.89 466.915C1219.28 456.91 1214.06 429.461 1214.06 429.461L1217.89 421.581L1222.4 419.013C1222.4 419.013 1230.92 423.352 1238.13 431.232C1237.61 433.446 1237.26 435.571 1237 437.607C1235.61 449.826 1232.83 506.671 1231.44 514.729C1213.98 515.349 1182.26 516.588 1161.07 517.297C1150.81 517.297 1143.6 517.297 1143.6 517.297C1143.6 517.297 1143.43 512.072 1143.17 504.635C1149.08 504.369 1156.98 503.838 1157.5 503.218Z" fill="#3F3F3F"/>
<path d="M1168.97 405.466C1175.05 404.757 1184.87 399.356 1188.69 401.216C1192.52 403.075 1193.47 407.768 1194.25 408.653C1195.04 409.539 1198.42 405.377 1198.42 395.46C1198.42 385.543 1198.68 375.361 1191.56 373.944C1184.35 372.528 1165.76 379.7 1162.02 382.622C1158.29 385.543 1156.72 388.465 1155.68 391.21C1154.64 394.044 1151.94 405.377 1153.16 405.466C1154.38 405.554 1157.94 398.205 1160.54 397.94C1163.15 397.674 1167.32 405.643 1168.97 405.466Z" fill="#4F4F4F"/>
<path d="M1165.5 396.523C1163.93 392.804 1162.28 389.439 1162.28 386.872C1162.37 384.304 1162.89 382.444 1165.76 381.648C1168.62 380.851 1169.75 382.356 1169.93 386.34C1170.1 390.325 1165.5 396.523 1165.5 396.523Z" fill="#3F3F3F"/>
<path d="M1187.74 389.528C1193.65 384.038 1194.34 377.929 1193.82 376.689C1193.3 375.449 1190.78 374.475 1190.78 374.475C1190.78 374.475 1189.82 378.46 1190.35 379.434C1190.95 380.408 1187.74 389.528 1187.74 389.528Z" fill="#3F3F3F"/>
<path d="M1178.36 402.81C1179.83 402.19 1181.31 401.659 1182.87 401.216C1184.44 400.862 1186 400.507 1187.65 400.596C1188.43 400.685 1189.3 400.862 1190.08 401.393C1190.69 402.013 1191.21 402.544 1191.74 403.164C1192.78 404.403 1193.56 405.909 1194.25 407.325C1194.43 407.679 1194.6 408.034 1194.78 408.034C1194.78 408.034 1194.78 408.034 1194.86 407.945C1194.95 407.857 1195.12 407.768 1195.21 407.591C1195.64 406.971 1195.99 406.263 1196.34 405.554C1197.03 404.138 1197.47 402.632 1197.73 401.039C1197.99 399.445 1198.16 397.851 1198.34 396.257C1198.51 394.664 1198.51 393.07 1198.51 391.476C1198.86 394.664 1198.86 397.94 1198.42 401.127C1198.25 402.721 1197.82 404.403 1197.12 405.909C1196.77 406.617 1196.43 407.414 1195.91 408.034C1195.73 408.211 1195.64 408.388 1195.38 408.565C1195.3 408.653 1195.12 408.742 1194.95 408.742C1194.78 408.742 1194.52 408.742 1194.43 408.653C1194.08 408.476 1193.99 408.299 1193.82 408.034C1193.73 407.857 1193.56 407.679 1193.47 407.502C1192.78 405.997 1192.08 404.669 1191.13 403.429C1190.61 402.81 1190.08 402.19 1189.56 401.659C1189.04 401.216 1188.35 401.039 1187.56 400.95C1186.09 400.773 1184.44 400.95 1182.96 401.304C1181.31 401.924 1179.83 402.278 1178.36 402.81Z" fill="#3F3F3F"/>
<path d="M1164.37 400.684C1163.67 400.065 1163.07 399.533 1162.37 399.002C1162.02 398.736 1161.67 398.559 1161.33 398.382C1161.15 398.294 1160.98 398.294 1160.81 398.205C1160.72 398.205 1160.63 398.205 1160.63 398.205C1160.55 398.205 1160.55 398.205 1160.46 398.294C1158.98 399.179 1157.85 400.507 1156.9 401.924C1156.38 402.632 1155.94 403.429 1155.42 404.138C1155.16 404.492 1154.81 404.846 1154.46 405.112C1154.29 405.289 1154.03 405.466 1153.68 405.466C1153.51 405.466 1153.25 405.377 1153.07 405.289C1152.9 405.112 1152.81 405.023 1152.81 404.846C1152.64 404.315 1152.73 403.872 1152.73 403.341C1152.81 402.898 1152.9 402.455 1152.99 402.013C1153.16 401.127 1153.42 400.242 1153.77 399.445C1153.68 400.33 1153.51 401.216 1153.42 402.101C1153.33 402.544 1153.33 402.987 1153.33 403.429C1153.33 403.872 1153.33 404.315 1153.51 404.58C1153.51 404.669 1153.6 404.669 1153.6 404.669C1153.68 404.669 1153.86 404.58 1153.94 404.403C1154.2 404.138 1154.46 403.783 1154.72 403.518C1155.25 402.809 1155.68 402.101 1156.2 401.304C1156.72 400.596 1157.24 399.799 1157.94 399.179C1158.63 398.559 1159.33 398.028 1160.11 397.585C1160.2 397.497 1160.37 397.497 1160.55 397.408C1160.72 397.408 1160.81 397.408 1160.98 397.408C1161.24 397.497 1161.5 397.585 1161.67 397.674C1162.11 397.94 1162.46 398.205 1162.8 398.471C1163.24 399.356 1163.85 399.976 1164.37 400.684Z" fill="#3F3F3F"/>
<path d="M1164.72 373.944C1164.72 376.424 1164.8 378.814 1165.06 381.293C1165.67 387.226 1165.06 395.106 1165.5 396.612C1166.02 398.205 1169.06 404.049 1169.06 404.049C1169.06 404.049 1174.53 401.481 1176.79 398.737C1179.05 395.992 1182 395.815 1186 391.742C1190 387.669 1192.69 381.116 1191.82 375.715C1191.73 375.007 1191.04 368.1 1190.87 360.928C1190.69 353.756 1183.31 348.355 1176.27 348.355C1169.23 348.355 1165.06 358.98 1164.8 366.152C1164.72 368.986 1164.63 371.731 1164.72 373.944Z" fill="#F6A397"/>
<path d="M1190.78 360.84C1190.95 368.012 1191.65 374.918 1191.74 375.627C1192 377.309 1191.91 379.08 1191.56 380.851C1190 381.116 1170.01 381.648 1164.8 379.168C1164.72 377.397 1164.63 375.715 1164.63 373.944C1164.63 371.731 1164.63 368.986 1164.72 365.975C1164.8 362.965 1165.58 359.246 1167.06 356.058L1183.57 350.126C1187.65 352.34 1190.69 356.236 1190.78 360.84Z" fill="#D65863"/>
<path d="M1152.38 331.001C1141.69 331.001 1137.78 339.324 1137.78 345.61C1137.78 351.189 1139.52 360.22 1152.38 360.22C1158.81 360.22 1163.15 353.668 1163.15 345.61C1163.15 337.553 1158.81 331.001 1152.38 331.001Z" fill="#504984"/>
<path d="M1151.86 334.542C1143.78 334.542 1140.82 340.829 1140.82 345.522C1140.82 349.772 1142.13 356.501 1151.86 356.501C1156.72 356.501 1160.02 351.543 1160.02 345.522C1160.02 339.501 1156.72 334.542 1151.86 334.542Z" fill="#372D5B"/>
<path d="M1138.91 335.871C1139.52 339.678 1141.34 341.095 1142.21 346.23C1142.99 351.366 1140.82 358.803 1144.12 365.267C1147.43 371.731 1152.73 380.32 1155.77 380.674C1158.81 381.028 1183.39 376.778 1191.65 360.043C1193.99 355.262 1199.12 336.313 1194.78 324.803C1190.43 313.292 1183.39 302.667 1167.06 302.401C1150.64 302.135 1135.61 315.771 1138.91 335.871Z" fill="#F6A397"/>
<path d="M1152.55 356.678C1153.42 356.678 1154.38 356.324 1154.81 355.793C1155.16 355.262 1155.33 354.642 1155.25 354.022C1153.94 355.085 1152.38 355.262 1150.81 354.996C1150.64 356.147 1151.6 356.678 1152.55 356.678Z" fill="#D65863"/>
<path d="M1181.48 335.871C1180.87 331.886 1178.27 329.673 1178.27 329.673C1178.27 329.673 1172.01 327.016 1167.23 326.573C1162.37 326.131 1157.42 324.626 1157.42 324.626C1157.42 324.626 1158.98 328.61 1161.5 330.292C1161.5 330.292 1149.95 329.673 1146.3 326.219C1146.3 326.219 1146.99 329.053 1147.69 331.001C1147.69 331.001 1142.04 330.381 1140.3 328.167C1140.3 328.167 1138.91 333.214 1138.91 335.959C1138.91 335.959 1132.14 326.485 1133.87 318.959C1135.61 311.433 1137.96 308.511 1137.96 308.511C1137.96 308.511 1133.09 308.953 1130.4 308.511C1130.4 308.511 1136.65 302.932 1141.43 299.213C1146.12 295.495 1160.28 295.406 1160.28 295.406C1160.28 295.406 1159.15 291.599 1160.46 285.489C1160.46 285.489 1166.54 294.521 1172.88 297.266C1179.22 300.01 1178.44 299.833 1185.22 301.516C1192 303.286 1198.42 307.714 1201.2 311.433C1203.9 315.151 1206.85 318.959 1208.59 319.579C1208.59 319.579 1204.33 318.959 1202.25 317.188C1202.25 317.188 1205.81 325.334 1201.12 335.871C1196.43 346.407 1184.7 343.308 1182.44 341.006C1180.09 338.704 1181.48 335.871 1181.48 335.871Z" fill="#BA6454"/>
<path d="M1182.35 341.006C1180.09 338.704 1181.48 335.871 1181.48 335.871C1181.14 333.48 1180.01 331.709 1179.22 330.647C1180.96 320.11 1180.27 309.219 1177.23 299.036C1178.96 299.745 1180.01 300.099 1182.61 300.807C1185.74 305.589 1188.09 310.99 1189.74 316.48C1191.82 323.475 1192.78 331.001 1190.87 337.996C1190.34 339.767 1189.65 341.537 1188.78 343.22C1185.74 343.043 1183.31 341.98 1182.35 341.006Z" fill="#874438"/>
<path d="M1185.57 331.975C1185.57 331.975 1186.35 305.677 1172.8 297.266C1172.8 297.266 1183.31 296.026 1189.3 306.74C1195.3 317.454 1194.86 326.574 1194.78 331.709C1194.6 336.845 1185.57 331.975 1185.57 331.975Z" fill="#504984"/>
<path d="M1189.74 331.001C1200.42 331.001 1204.33 339.324 1204.33 345.61C1204.33 351.189 1202.6 360.22 1189.74 360.22C1183.31 360.22 1178.96 353.668 1178.96 345.61C1178.96 337.553 1183.31 331.001 1189.74 331.001Z" fill="#504984"/>
<path d="M1184 345.522C1184 338.35 1188.61 332.594 1194.34 332.594C1200.08 332.594 1204.33 338.35 1204.33 345.522C1204.33 352.694 1199.99 358.449 1194.34 358.449C1188.61 358.538 1184 352.694 1184 345.522Z" fill="#372D5B"/>
<path d="M1195.64 354.288C1199.53 354.288 1202.68 350.363 1202.68 345.522C1202.68 340.681 1199.53 336.756 1195.64 336.756C1191.76 336.756 1188.61 340.681 1188.61 345.522C1188.61 350.363 1191.76 354.288 1195.64 354.288Z" fill="#504984"/>
<path d="M1162.72 360.132C1159.85 361.725 1150.47 362.257 1149.77 362.168C1149.16 362.08 1150.47 369.34 1152.73 369.606C1154.98 369.871 1159.59 369.252 1161.59 367.392C1163.59 365.533 1162.72 360.132 1162.72 360.132Z" fill="#D65863"/>
<path d="M1162.11 362.257C1161.94 361.637 1161.76 361.106 1161.68 360.574C1158.55 361.637 1152.29 362.168 1150.38 362.168C1150.55 363.142 1150.82 364.116 1151.16 365.09C1151.25 365.09 1151.16 365.179 1151.25 365.179C1155.42 365.887 1159.59 364.47 1162.11 362.257Z" fill="white"/>
<path d="M1161.5 342.777C1161.5 341.449 1162.11 340.386 1162.98 340.386C1163.76 340.386 1164.45 341.449 1164.45 342.777C1164.45 344.105 1163.85 345.168 1162.98 345.168C1162.11 345.168 1161.5 344.105 1161.5 342.777Z" fill="#3F3F3F"/>
<path d="M1145.08 343.839C1145.08 342.511 1145.6 341.449 1146.3 341.449C1146.99 341.449 1147.51 342.511 1147.51 343.839C1147.51 345.168 1146.99 346.23 1146.3 346.23C1145.6 346.319 1145.08 345.168 1145.08 343.839Z" fill="#3F3F3F"/>
<path d="M1169.49 333.391C1168.54 332.86 1167.5 332.506 1166.37 332.152C1165.24 331.886 1164.19 331.709 1162.98 331.62C1161.85 331.532 1160.63 331.532 1159.5 331.975C1158.37 332.329 1157.42 333.037 1156.64 334.011L1156.72 334.188C1157.94 334.1 1158.89 333.745 1159.94 333.657C1160.98 333.48 1161.94 333.126 1162.98 333.037C1165.06 332.86 1167.24 333.037 1169.32 333.657L1169.49 333.391Z" fill="#3F3F3F"/>
<path d="M1140.91 336.49C1141.43 336.313 1141.95 336.136 1142.47 336.136C1143 336.048 1143.52 336.048 1144.04 336.048C1144.56 336.048 1145.08 336.225 1145.6 336.136C1145.86 336.048 1146.12 336.048 1146.38 335.871C1146.64 335.782 1146.9 335.693 1147.25 335.428V335.251C1146.73 334.72 1146.12 334.542 1145.6 334.454C1144.99 334.365 1144.39 334.542 1143.86 334.72C1143.26 334.897 1142.73 335.074 1142.21 335.339C1141.69 335.605 1141.17 335.959 1140.74 336.402L1140.91 336.49Z" fill="#3F3F3F"/>
<path d="M1157.5 508.974C1157.5 509.328 1156.98 509.859 1155.77 509.859C1154.55 509.859 1120.93 509.859 1116.41 509.859C1111.89 509.859 1110.85 508 1112.15 505.698C1113.54 503.395 1119.28 498.26 1133.44 494.718C1147.69 491.176 1155.16 499.499 1157.42 503.218C1159.24 505.963 1157.5 508.974 1157.5 508.974Z" fill="#504984"/>
<path d="M1111.81 506.406C1112.59 509.062 1142.65 507.646 1142.65 507.646C1142.65 507.646 1139.61 503.484 1136.22 503.307C1132.83 503.218 1131.18 504.369 1126.66 505.166C1122.14 505.963 1125.53 503.307 1125.53 503.307C1125.53 503.307 1122.32 502.599 1121.02 501.536C1121.02 501.536 1128.49 499.322 1131.61 498.791C1134.74 498.26 1142.65 498.614 1143.69 498.791C1144.39 498.88 1148.04 496.755 1152.47 497.817C1154.9 499.677 1156.55 501.713 1157.42 503.13C1159.16 505.875 1157.42 508.797 1157.42 508.797C1157.42 509.151 1156.9 509.682 1155.68 509.682C1154.46 509.682 1120.84 509.682 1116.32 509.682C1112.33 509.859 1111.11 508.354 1111.81 506.406Z" fill="#372D5B"/>
<path d="M1240.3 483.916C1240.3 483.916 1212.33 488.343 1197.12 491.088C1182.79 493.744 1170.36 494.807 1166.8 494.187C1163.33 493.479 1151.25 488.963 1147.43 487.369C1143.6 485.775 1135.87 484.801 1131.88 486.129C1127.88 487.369 1124.66 488.786 1123.1 488.786C1121.54 488.786 1121.8 491.442 1123.97 491.973C1126.05 492.505 1127.97 492.416 1127.97 492.416C1127.97 492.416 1120.76 496.401 1119.54 496.843C1118.32 497.286 1119.8 499.588 1121.54 499.5C1121.54 499.5 1119.97 500.385 1120.58 501.359C1121.1 502.244 1124.93 502.244 1124.93 502.244C1124.93 502.244 1120.32 504.547 1124.14 505.52C1127.97 506.406 1132.57 502.067 1134.48 501.625C1136.39 501.27 1140.74 501.447 1142.91 503.13C1144.99 504.724 1154.12 512.25 1166.54 507.734C1166.54 507.734 1250.73 511.187 1259.15 511.187C1267.58 511.187 1272.62 503.661 1269.93 489.051C1267.23 474.442 1262.02 463.639 1262.02 463.639L1233 465.764L1240.3 483.916Z" fill="#F6A397"/>
<path d="M1134.57 490.025C1135.35 489.848 1135.87 489.76 1136.31 489.76C1136.22 489.671 1135.53 489.848 1134.57 490.025Z" fill="#D65863"/>
<path d="M1127.88 492.328C1127.88 492.328 1125.97 492.416 1123.88 491.885C1123.28 491.708 1122.84 491.442 1122.49 490.999C1124.84 492.062 1127.71 491.354 1129.36 490.999C1130.4 490.734 1132.83 490.291 1134.48 490.025C1132.83 490.38 1130.4 491.177 1127.88 492.328Z" fill="#D65863"/>
<path d="M1128.31 495.781C1128.49 495.692 1128.66 495.603 1128.75 495.603C1128.75 495.603 1128.57 495.692 1128.31 495.781Z" fill="#D65863"/>
<path d="M1119.45 498.437C1119.45 498.437 1120.32 499.234 1122.06 498.437C1123.54 497.817 1127.01 496.312 1128.31 495.78C1126.75 496.489 1122.58 498.879 1121.45 499.322C1120.67 499.411 1119.89 498.968 1119.45 498.437Z" fill="#D65863"/>
<path d="M1123.8 501.27C1125.1 500.916 1127.79 499.234 1129.44 498.437C1131.09 497.64 1133.18 497.551 1133.18 497.551C1133.18 497.551 1132.57 497.64 1130.92 498.437C1129.27 499.234 1124.75 502.156 1124.75 502.156C1124.75 502.156 1122.32 502.156 1121.1 501.713C1121.1 501.624 1122.49 501.624 1123.8 501.27Z" fill="#D65863"/>
<path d="M1147.77 503.13C1150.12 504.635 1157.16 506.583 1161.41 505.786C1165.58 504.989 1166.54 501.359 1166.54 501.359L1167.67 505.255C1167.67 505.255 1226.05 506.937 1237.96 506.406C1249.68 505.875 1268.02 505.609 1270.36 498.437C1269.67 506.76 1265.24 511.099 1258.98 511.099C1250.55 511.099 1166.37 507.645 1166.37 507.645C1153.94 512.073 1144.91 504.635 1142.73 503.041C1141 501.713 1137.61 501.27 1135.52 501.447C1138.74 500.208 1145.34 501.625 1147.77 503.13Z" fill="#D65863"/>
<path d="M1240.3 483.916C1240.3 483.916 1251.25 482.41 1253.42 482.145L1251.77 475.238L1237.96 478.072L1240.3 483.916Z" fill="#D65863"/>
<path d="M1269.49 464.436C1269.93 465.499 1269.67 466.738 1268.8 467.535C1263.67 472.582 1257.07 479.489 1250.21 480.551C1242.73 481.702 1230.22 482.145 1229.53 480.551C1228.83 478.957 1226.31 458.327 1221.8 447.967C1217.28 437.519 1214.32 432.206 1213.2 426.274C1212.07 420.253 1222.23 406.174 1226.84 405.023C1231.35 403.872 1241.78 403.164 1246.12 407.148C1250.47 411.044 1253.59 426.097 1258.63 437.43C1262.63 446.462 1267.67 459.743 1269.49 464.436Z" fill="#4F4F4F"/>
<path d="M1241.43 404.758C1240.04 404.581 1238.65 404.492 1237.26 404.403C1235.87 404.315 1234.48 404.315 1233.09 404.403C1231.7 404.492 1230.31 404.669 1229.01 404.846C1228.31 404.935 1227.62 405.112 1227.01 405.289C1226.4 405.555 1225.71 405.732 1225.19 406.086C1224.58 406.351 1224.06 406.794 1223.45 407.148C1222.93 407.591 1222.41 408.034 1221.97 408.565C1221.02 409.539 1220.15 410.602 1219.28 411.753C1218.41 412.904 1217.71 414.055 1217.02 415.294C1216.32 416.534 1215.63 417.774 1215.02 419.013C1215.98 416.357 1217.28 413.789 1218.84 411.398C1219.63 410.247 1220.49 409.096 1221.54 408.034C1221.97 407.503 1222.58 407.06 1223.1 406.529C1223.71 406.086 1224.23 405.643 1224.92 405.289C1225.53 404.935 1226.23 404.669 1226.92 404.492C1227.62 404.315 1228.31 404.138 1229.01 404.049C1230.4 403.872 1231.79 403.695 1233.27 403.695C1235.87 403.784 1238.65 404.138 1241.43 404.758Z" fill="#3F3F3F"/>
<path d="M1263.85 468.686C1263.85 464.967 1256.11 431.144 1249.42 412.284C1252.29 418.748 1254.98 429.019 1258.63 437.342C1262.63 446.462 1267.76 459.655 1269.49 464.436C1269.93 465.499 1269.67 466.738 1268.8 467.535C1266.89 469.483 1264.63 471.697 1262.37 473.733C1262.54 473.556 1263.85 472.139 1263.85 468.686Z" fill="#3F3F3F"/>
<path d="M898.862 430.613C898.688 431.764 898.949 432.915 899.47 433.889C901.468 437.519 902.424 441.769 902.337 445.931C902.25 448.675 901.729 451.509 902.424 454.165C903.727 458.769 908.419 461.603 909.982 466.119C911.372 470.103 910.069 475.15 912.849 478.249C913.544 479.046 914.587 479.577 915.543 479.223C916.064 479.046 916.411 478.603 916.759 478.249C919.974 474.53 923.449 470.014 922.406 465.145C921.451 460.54 916.846 457.441 915.977 452.926C915.282 449.207 917.107 444.868 915.021 441.68C914.413 440.795 913.631 440.175 912.936 439.29C910.417 436.014 911.372 430.79 908.505 427.868C907.55 426.894 906.42 426.362 905.117 426.097C902.163 425.3 899.296 427.425 898.862 430.613Z" fill="#BA5E5B"/>
<path d="M917.194 488.697C917.367 486.218 917.454 483.827 917.541 481.348C917.454 478.869 917.28 476.478 917.107 473.999C916.933 471.52 916.672 469.129 916.238 466.738C915.803 464.348 915.282 461.868 914.24 459.566C912.502 455.051 911.112 450.446 909.722 445.754L907.637 438.759C906.768 436.456 905.986 434.154 905.204 431.852C905.552 434.243 906.073 436.634 906.594 439.024L908.679 446.019C910.069 450.712 911.459 455.316 913.284 459.921C914.24 462.134 914.761 464.436 915.195 466.827C915.63 469.218 915.89 471.608 916.064 473.999C916.238 476.39 916.412 478.869 916.499 481.26L917.194 488.697Z" fill="#FFA6A4"/>
<path d="M904.596 439.201C905.031 439.821 905.465 440.264 906.073 440.707C906.334 440.884 906.681 441.061 907.029 441.149C907.376 441.326 907.637 441.503 907.898 441.769L907.985 441.858L908.071 441.681C908.332 441.326 908.593 440.972 908.766 440.618C908.94 440.264 909.201 439.91 909.375 439.555C909.722 438.759 909.983 437.962 910.157 437.076H910.07C909.461 437.696 909.027 438.404 908.593 439.201C908.419 439.555 908.245 439.998 908.071 440.352C907.898 440.707 907.811 441.149 907.724 441.592L907.898 441.503C907.637 441.326 907.376 441.149 907.116 440.884C906.855 440.618 906.681 440.352 906.421 440.175C905.899 439.733 905.291 439.378 904.596 439.201Z" fill="#FFA6A4"/>
<path d="M905.204 447.613C905.639 447.967 906.073 448.321 906.507 448.675C906.942 449.03 907.376 449.295 907.897 449.561C908.419 449.827 908.94 450.004 909.374 450.269C909.809 450.535 910.243 450.889 910.678 451.243L910.851 451.332L911.025 451.155C911.72 450.269 912.241 449.384 912.763 448.41C913.284 447.436 913.718 446.462 914.066 445.399H913.979C913.284 446.196 912.676 447.17 912.068 448.056C911.546 449.03 911.025 450.004 910.678 450.978L910.938 450.889C910.417 450.623 909.983 450.446 909.461 450.092C909.027 449.738 908.592 449.384 908.158 449.03C907.724 448.676 907.202 448.41 906.768 448.144C906.247 447.879 905.725 447.613 905.204 447.613Z" fill="#FFA6A4"/>
<path d="M908.072 458.592C908.506 459.035 909.027 459.389 909.549 459.743C910.07 460.098 910.591 460.275 911.199 460.452C911.808 460.629 912.329 460.895 912.85 461.249C913.371 461.603 913.806 462.046 914.24 462.311L914.588 462.577L914.848 462.134C915.283 461.514 915.63 460.895 915.891 460.186C916.152 459.478 916.412 458.858 916.586 458.061L916.499 457.973C915.978 458.504 915.543 459.124 915.109 459.655C914.675 460.275 914.414 460.895 914.067 461.603L914.675 461.426C914.153 461.16 913.545 460.983 912.937 460.717C912.329 460.54 911.808 460.186 911.373 459.832C910.939 459.389 910.418 459.124 909.809 458.858C909.375 458.769 908.767 458.592 908.072 458.592Z" fill="#FFA6A4"/>
<path d="M921.018 489.14C922.929 488.786 929.88 486.572 929.445 484.713C927.36 476.655 925.275 467.624 932.486 463.728C935.961 461.868 940.392 460.894 942.39 457.353C944.476 453.722 942.912 449.207 941.087 445.488C939.263 441.769 937.004 437.784 937.786 433.711C938.655 429.461 942.564 426.274 943.172 421.935C944.041 416.091 938.394 411.31 933.007 409.008C931.183 408.211 929.185 407.591 927.273 408.034C925.883 408.388 924.667 409.273 923.711 410.336C919.888 414.675 920.062 421.138 920.931 426.894C921.8 432.649 923.103 438.67 921.018 443.983C919.541 447.79 916.326 451.42 917.195 455.405C917.543 456.998 918.498 458.415 918.933 460.009C919.975 464.348 916.413 468.244 914.849 472.317C912.764 477.629 914.154 484.093 918.151 488.166C918.933 488.963 919.975 489.317 921.018 489.14Z" fill="#E67471"/>
<path d="M920.41 489.228C920.844 486.041 921.279 482.853 921.8 479.754C921.974 478.957 922.06 478.16 922.234 477.364C922.321 476.567 922.408 475.77 922.582 474.973C922.842 473.379 923.103 471.874 923.364 470.28C923.972 467.181 924.667 464.082 925.709 461.16C926.231 459.655 926.839 458.238 927.708 456.998C928.142 456.379 928.576 455.847 929.098 455.493C929.793 455.051 930.488 454.431 931.009 453.722C932.052 452.306 932.399 450.446 932.399 448.764C932.399 447.082 932.052 445.488 931.704 443.894C931.009 440.706 930.053 437.696 929.532 434.597C929.011 431.498 928.924 428.399 929.706 425.388C929.967 424.68 930.14 423.972 930.401 423.175C930.662 422.466 930.922 421.758 931.27 421.05C931.965 419.633 932.92 418.393 933.876 417.154C932.66 418.128 931.53 419.279 930.575 420.607C930.053 421.227 929.619 421.935 929.272 422.732C928.837 423.44 928.576 424.237 928.403 425.034C927.534 428.31 927.621 431.675 928.142 434.863C928.663 438.05 929.619 441.149 930.314 444.248C930.662 445.753 930.922 447.347 931.009 448.852C931.009 450.358 930.748 451.863 929.967 452.925C929.532 453.457 929.011 453.988 928.403 454.342C927.621 454.873 927.1 455.582 926.578 456.29C925.623 457.707 925.014 459.212 924.493 460.717C923.364 463.816 922.669 466.915 922.06 470.103C921.8 471.697 921.539 473.291 921.279 474.884C921.192 475.681 921.018 476.478 920.931 477.275C920.844 478.072 920.844 478.869 920.757 479.666C920.41 482.853 920.323 486.041 920.41 489.228Z" fill="#FFA6A4"/>
<path d="M932.833 426.717C932.312 426.894 931.877 427.248 931.443 427.602C931.009 427.956 930.661 428.31 930.314 428.753C930.053 429.196 929.792 429.727 929.358 430.081C929.01 430.435 928.576 430.79 928.142 431.144H928.663C928.489 430.701 928.229 430.347 928.055 429.993C927.794 429.639 927.62 429.196 927.36 428.842C927.099 428.487 926.838 428.133 926.578 427.779C926.317 427.425 925.97 427.071 925.796 426.717H925.709C925.709 427.248 925.796 427.691 925.97 428.133C926.143 428.576 926.317 429.019 926.578 429.373C926.752 429.816 927.012 430.17 927.273 430.524C927.533 430.878 927.794 431.232 928.142 431.586L928.489 431.941L928.663 431.586C928.924 431.144 929.184 430.612 929.532 430.258C929.879 429.816 930.314 429.55 930.748 429.196C931.182 428.842 931.53 428.487 931.877 428.045C932.312 427.691 932.573 427.248 932.833 426.717Z" fill="#FFA6A4"/>
<path d="M925.971 438.847C926.231 439.378 926.492 439.909 926.84 440.352C927.187 440.795 927.535 441.238 927.882 441.68C928.316 442.035 928.751 442.389 929.185 442.743C929.62 443.097 929.967 443.54 930.315 443.982L930.402 444.16L930.575 444.071C931.184 443.628 931.618 443.186 932.052 442.743C932.487 442.212 932.921 441.769 933.356 441.238C933.79 440.706 934.137 440.175 934.485 439.644C934.832 439.113 935.18 438.493 935.528 438.05L935.441 437.962C934.832 438.227 934.311 438.758 933.877 439.201C933.442 439.644 933.008 440.175 932.574 440.618C932.139 441.149 931.792 441.68 931.444 442.212C931.097 442.743 930.749 443.363 930.402 443.805H930.662C930.228 443.451 929.88 443.008 929.533 442.566C929.185 442.123 928.925 441.592 928.577 441.149C928.23 440.706 927.795 440.352 927.448 439.909C927.013 439.467 926.579 439.113 925.971 438.847Z" fill="#FFA6A4"/>
<path d="M938.481 448.233C937.873 448.941 937.265 449.561 936.657 450.181C936.049 450.8 935.354 451.332 934.659 451.951C933.963 452.571 933.268 453.014 932.4 453.28C931.531 453.545 930.662 453.545 929.793 453.545L930.141 453.811C929.967 453.103 929.793 452.394 929.533 451.686C929.272 450.977 929.011 450.269 928.664 449.649C928.316 449.03 927.882 448.321 927.361 447.79C926.839 447.259 926.231 446.727 925.536 446.462L925.449 446.55C925.97 447.082 926.405 447.613 926.752 448.233C927.1 448.852 927.447 449.472 927.708 450.092L928.577 452.04C928.838 452.66 929.098 453.368 929.359 454.076L929.446 454.431H929.706C930.662 454.254 931.531 453.988 932.4 453.634C933.268 453.28 934.137 453.014 934.919 452.571C935.788 452.129 936.483 451.509 937.091 450.8C937.873 450.004 938.307 449.207 938.481 448.233Z" fill="#FFA6A4"/>
<path d="M921.627 455.405C921.366 456.113 921.279 456.91 921.279 457.618C921.279 458.415 921.453 459.124 921.714 459.832C921.974 460.54 922.409 461.16 922.843 461.78L924.146 463.551L924.233 463.639L924.407 463.551C925.102 463.019 925.884 462.665 926.666 462.223C927.448 461.78 928.23 461.426 929.012 461.071C929.794 460.717 930.575 460.363 931.444 460.098C932.226 459.743 933.095 459.478 933.964 459.124V459.035C932.139 459.035 930.315 459.389 928.664 460.098C927.795 460.452 927.013 460.983 926.318 461.426C925.536 461.957 924.928 462.577 924.233 463.197H924.494C923.973 462.665 923.538 462.134 923.278 461.426C922.93 460.806 922.843 460.097 922.582 459.389C922.148 458.061 921.887 456.733 921.801 455.228L921.627 455.405Z" fill="#FFA6A4"/>
<path d="M908.333 509.859H928.402C930.226 509.859 931.877 508.265 932.138 505.963L935.265 480.817C935.613 478.072 933.875 475.593 931.53 475.593H905.118C902.772 475.593 901.035 478.072 901.382 480.817L904.51 505.963C904.857 508.265 906.421 509.859 908.333 509.859Z" fill="#504984"/>
<path d="M905.119 475.681H918.585C916.239 475.681 914.502 478.161 914.849 480.905L917.977 506.052C918.238 508.265 919.802 509.948 921.713 509.948H908.246C906.422 509.948 904.771 508.354 904.511 506.052L901.383 480.905C901.035 478.161 902.86 475.681 905.119 475.681Z" fill="#372D5B"/>
<path d="M1087.74 502.952H1003.99C1003.12 502.952 1002.42 503.661 1002.42 504.546V508.354C1002.42 509.239 1003.12 509.947 1003.99 509.947H1087.74V502.952Z" fill="#282142"/>
<path d="M1109.29 507.734V509.239C1109.29 509.593 1109.03 509.859 1108.68 509.859H1087.57C1086.87 509.859 1086.35 509.328 1086.35 508.619V504.192C1086.35 503.484 1086.96 502.864 1087.65 502.952L1108.68 507.114C1109.11 507.203 1109.29 507.38 1109.29 507.734Z" fill="#504984"/>
<path d="M941.347 357.829H1097.9C1101.03 357.829 1103.9 359.866 1104.94 362.876L1139.17 459.832C1140.56 464.79 1137 468.597 1131.27 469.217C1130.4 469.306 1126.14 467.358 1119.54 464.259H979.661C976.533 464.259 973.666 462.222 972.623 459.212L941.694 371.642C936.481 368.897 933.441 367.303 933.441 367.303C933.441 367.303 931.442 357.829 941.347 357.829Z" fill="#504984"/>
<path d="M1093.04 362.876H936.394C934.136 362.876 932.659 365.09 933.354 367.215L967.584 464.17C968.627 467.181 971.494 469.217 974.622 469.217H1131.18C1133.44 469.217 1134.92 467.004 1134.22 464.879L1099.99 367.923C1099.03 364.824 1096.17 362.876 1093.04 362.876Z" fill="#372D5B"/>
<path d="M1057.68 469.217L1050.73 442.92L1024.4 469.217H1057.68Z" fill="#282142"/>
<path d="M1019.54 396.877C1020.23 401.216 1023.01 402.987 1026.32 402.987C1029.62 402.987 1032.05 400.242 1031.53 396.877C1030.92 393.601 1028.05 390.767 1024.75 390.767C1021.45 390.767 1019.02 393.601 1019.54 396.877Z" fill="#504984"/>
<path d="M1093.13 453.102L1091.13 447.347H1093.65L1095.65 453.102H1093.13Z" fill="#282142"/>
<path d="M1087.83 453.102L1085.83 447.347H1088.35L1090.35 453.102H1087.83Z" fill="#282142"/>
<path d="M1082.44 453.102L1080.44 447.347H1082.96L1085.05 453.102H1082.44Z" fill="#282142"/>
<path d="M1077.14 453.102L1075.14 447.347H1077.66L1079.66 453.102H1077.14Z" fill="#282142"/>
<path d="M1001.47 453.102L999.47 447.347H1001.99L1003.99 453.102H1001.47Z" fill="#282142"/>
<path d="M996.081 453.102L994.083 447.347H996.602L998.6 453.102H996.081Z" fill="#282142"/>
<path d="M990.782 453.102L988.784 447.347H991.303L993.301 453.102H990.782Z" fill="#282142"/>
<path d="M985.482 453.102L983.396 447.347H986.003L988.001 453.102H985.482Z" fill="#282142"/>
<path d="M1004.77 500.473C1006.33 495.957 1025.01 434.331 1025.01 434.331H1049.08L1050.64 442.92C1050.64 442.92 1034.48 495.957 1033.01 500.473C1032.92 500.827 1032.75 501.181 1032.66 501.536C1031.27 505.963 1035 505.963 1039.17 505.963C1043.34 505.963 1081.57 505.963 1081.57 505.963V509.859H1039.17H1010.94C1002.51 509.859 1003.21 504.989 1004.77 500.473Z" fill="#372D5B"/>
<path d="M1049.16 434.331C1049.16 434.331 1030.4 495.957 1028.92 500.473C1027.36 504.989 1026.58 509.859 1035.09 509.859H1006.85C998.34 509.859 999.122 504.989 1000.69 500.473C1002.25 495.957 1020.93 434.331 1020.93 434.331H1049.16Z" fill="#504984"/>
<path d="M1043.26 434.331C1041.43 434.242 1039.52 434.242 1037.7 434.154C1035.87 434.065 1033.96 434.065 1032.14 434.065C1030.31 434.065 1028.4 433.977 1026.58 433.977H1021.02H1020.67L1020.58 434.242C1019.8 436.722 1019.02 439.201 1018.32 441.68L1016.06 449.118C1014.59 454.076 1013.2 459.123 1011.89 464.17C1013.63 459.3 1015.19 454.342 1016.85 449.383L1019.19 441.946C1019.97 439.466 1020.75 436.987 1021.45 434.508L1021.02 434.774H1026.58C1028.4 434.774 1030.31 434.685 1032.14 434.685C1033.96 434.685 1035.87 434.597 1037.7 434.597C1039.52 434.508 1041.35 434.419 1043.26 434.331Z" fill="#7F74D1"/>
<path d="M879.402 525H1294.08C1298.16 525 1301.46 521.635 1301.46 517.474C1301.46 513.312 1298.16 509.948 1294.08 509.948H879.402C875.318 509.948 872.017 513.312 872.017 517.474C871.93 521.635 875.318 525 879.402 525Z" fill="#DADADA"/>
<path d="M879.402 525H1294.08C1298.16 525 1301.47 521.635 1301.47 517.474H871.93C871.93 521.635 875.318 525 879.402 525Z" fill="white"/>
<path d="M958.284 338.794C970.914 283.798 937.408 228.78 883.446 215.908C829.483 203.036 775.499 237.184 762.869 292.18C750.239 347.176 783.745 402.193 837.708 415.065C891.67 427.937 945.654 393.789 958.284 338.794Z" fill="#EF9DA9"/>
<path d="M921.245 312.263C922.264 317.38 917.606 321.905 916.151 322.721C914.695 323.537 905.016 327.542 899.194 327.69C893.371 327.838 885.657 315.229 888.786 313.82C891.916 312.411 913.385 310.853 915.714 310.853C918.116 310.853 921.245 312.263 921.245 312.263Z" fill="#FFC5C7"/>
<path d="M905.962 309.518C903.414 324.797 897.374 336.665 895.482 336.813C893.59 337.036 875.468 330.657 870.446 328.358C865.425 326.058 871.975 290.234 875.104 290.827C878.234 291.421 885.002 298.319 890.678 301.656C896.282 304.994 905.962 309.518 905.962 309.518Z" fill="white"/>
<path d="M876.122 315.897C877.869 318.938 892.279 326.652 900.212 329.544C898.247 334.069 896.427 336.813 895.481 336.887C893.88 337.036 880.344 332.437 873.357 329.618C873.939 323.982 876.122 315.897 876.122 315.897Z" fill="#DCEDFF"/>
<path d="M921.246 311.521C921.391 317.603 916.006 318.419 909.602 316.861C903.197 315.304 892.717 300.618 888.06 294.017C883.402 287.415 874.741 275.548 872.922 274.51C871.103 273.471 867.027 272.878 863.461 266.944C859.968 261.011 864.553 248.476 866.227 246.993C867.9 245.509 882.165 250.479 883.839 253C885.512 255.522 882.674 268.947 883.184 270.653C883.693 272.359 895.847 286.155 901.159 289.566C906.545 292.904 921.173 307.145 921.246 311.521Z" fill="#FFC5C7"/>
<path d="M873.648 256.931C871.975 256.115 871.538 252.259 872.63 252.926C873.721 253.594 875.541 253.594 878.015 253.519C880.489 253.519 881.508 253.297 881.508 253.297C881.508 253.297 881.799 254.929 881.727 256.338C881.799 256.338 875.322 257.821 873.648 256.931Z" fill="#FE8A8B"/>
<path d="M862.586 257.821C863.605 255.893 864.406 254.409 864.406 254.409L874.23 264.052C876.923 261.678 880.198 259.527 880.198 259.527L881.072 261.085C879.47 263.829 878.088 269.614 878.088 271.024C878.088 271.024 876.559 272.73 875.759 272.878C875.759 272.878 886.239 289.863 893.007 298.17C899.702 306.477 904.287 313.598 907.49 315.897C901.085 312.114 892.425 299.95 888.276 294.017C883.619 287.341 874.958 275.548 873.139 274.51C871.319 273.471 867.244 272.878 863.678 266.944C862.222 264.571 862.077 261.159 862.586 257.821Z" fill="#FE8A8B"/>
<path d="M882.964 258.786C882.818 259.75 873.066 268.354 872.048 269.392C871.975 269.466 871.174 269.615 871.029 269.392C868.409 267.093 857.128 246.102 856.91 245.361C856.692 244.619 864.26 237.425 866.516 235.496C866.808 235.199 868.118 235.422 868.336 235.719C870.665 239.205 883.182 257.525 882.964 258.786Z" fill="#0C0835"/>
<path d="M881.946 258.786C881.8 259.75 872.048 268.354 871.029 269.392C870.01 270.356 856.11 246.177 855.891 245.361C855.673 244.619 864.042 237.573 866.371 235.644C866.662 235.348 867.099 235.422 867.317 235.719C869.646 239.205 882.091 257.525 881.946 258.786Z" fill="#252384"/>
<path d="M880.271 257.376C880.126 258.266 871.029 266.351 870.083 267.315C869.137 268.205 856.11 245.583 855.891 244.841C855.746 244.174 863.533 237.573 865.716 235.718C866.007 235.496 866.444 235.496 866.589 235.793C868.773 239.056 880.417 256.19 880.271 257.376Z" fill="#57AFF7"/>
<path d="M874.449 245.583C872.92 244.619 871.101 241.504 870.883 240.465C870.737 239.427 870.81 238.463 871.61 238.24C872.411 238.018 874.958 241.355 876.195 242.32C877.433 243.284 878.961 245.361 878.306 246.77C877.724 248.179 874.885 247.586 874.594 247.437C874.376 247.141 874.449 245.583 874.449 245.583Z" fill="#FFC5C7"/>
<path d="M871.174 238.463C870.665 239.65 873.794 244.471 876.56 245.88L875.541 247.067C875.541 247.067 875.104 246.992 874.522 246.844C874.449 246.325 874.449 245.583 874.449 245.583C872.921 244.619 871.102 241.504 870.883 240.465C870.81 239.65 870.81 238.908 871.174 238.463Z" fill="#FE8A8B"/>
<path d="M877.942 250.404C875.322 248.995 873.285 249.143 871.902 248.55C870.519 247.957 870.228 245.732 871.174 245.361C872.12 244.99 878.015 245.954 879.471 246.622C880.999 247.289 881.727 250.479 881.727 250.479L877.942 250.404Z" fill="#FFC5C7"/>
<path d="M876.851 248.773C878.307 249.069 878.816 248.773 878.816 248.773C878.743 249.366 879.325 249.663 879.908 250.479L877.943 250.404C875.323 248.995 873.285 249.144 871.902 248.55C871.247 248.253 870.883 247.66 870.738 247.067C871.32 248.328 875.396 248.476 876.851 248.773Z" fill="#FE8A8B"/>
<path d="M883.983 252.926C882.6 254.854 875.832 254.039 874.449 253.816C873.066 253.594 872.193 252.704 872.339 251.813C872.63 250.033 881.581 250.33 882.382 250.627C883.037 250.923 883.983 252.926 883.983 252.926Z" fill="#FFC5C7"/>
<path d="M872.338 252.259C873.284 253.223 875.468 253.742 877.942 253.965C880.053 254.113 881.29 254.039 881.581 254.039C879.034 254.484 875.395 253.965 874.449 253.816C873.284 253.668 872.484 253 872.338 252.259Z" fill="#FE8A8B"/>
<path d="M852.108 280.295C866.517 287.787 868.919 287.49 875.105 290.902C881.291 294.314 879.472 329.99 879.035 335.552C878.671 341.041 877.143 362.921 877.943 368.855C878.744 374.789 881.946 396.817 883.402 400.229C884.857 403.641 887.55 409.352 883.329 412.764C879.108 416.176 870.302 418.475 851.016 417.214C831.73 415.953 810.989 403.864 810.115 402.158C809.169 400.452 819.285 369.3 819.722 363.366C820.159 357.433 821.323 352.983 821.905 350.238C822.487 347.494 816.374 334.588 815.428 326.281C814.482 318.048 805.676 295.204 807.277 291.05C808.951 286.897 824.307 282.224 834.714 276.884C845.267 271.617 852.108 280.295 852.108 280.295Z" fill="white"/>
<path d="M866.444 289.567C864.043 297.503 859.24 304.697 852.762 309.815C844.975 307.887 836.97 304.327 830.565 299.357C837.698 304.697 845.485 309.222 853.854 312.337C860.986 306.478 865.207 298.764 866.444 289.567Z" fill="#DCEDFF"/>
<path d="M863.533 285.784C860.768 284.597 857.202 282.891 852.18 280.295C852.18 280.295 845.339 271.617 834.859 276.884C831.22 278.738 826.999 280.518 822.997 282.15C829.255 292.904 839.299 301.36 850.943 305.365C857.056 300.544 861.496 293.498 863.533 285.784Z" fill="#FFC5C7"/>
<path d="M810.187 402.158C809.241 400.452 819.357 369.3 819.794 363.366C820.231 357.433 821.395 352.983 821.977 350.238C822.559 347.494 816.446 334.588 815.5 326.281C815.355 324.872 814.918 322.943 814.408 320.793L820.886 315.823C824.67 326.652 827.072 345.714 830.711 350.387C834.349 355.059 843.374 356.988 843.374 356.988C843.374 356.988 834.495 359.139 830.565 358.249C830.565 358.249 826.417 375.011 826.344 383.244C826.271 391.477 827.072 404.012 827.144 405.718C827.144 406.385 827.072 408.536 826.853 411.058C817.538 407.35 810.697 403.122 810.187 402.158Z" fill="#DCEDFF"/>
<path d="M836.46 261.901C836.315 270.727 835.733 276.809 833.84 278.515C833.84 278.515 837.115 293.201 850.361 291.94C854.8 291.495 854.436 283.855 852.18 280.369L853.49 269.541L836.46 261.901Z" fill="#FFC5C7"/>
<path d="M834.859 276.958C836.024 274.213 836.388 268.947 836.533 261.901L853.49 269.466L852.617 276.438C849.633 277.774 834.859 276.958 834.859 276.958Z" fill="#FE8A8B"/>
<path d="M789.738 333.401C786.827 337.481 782.897 347.642 784.353 352.315C785.808 356.988 800.946 377.755 807.932 385.469C814.919 393.183 816.447 394.518 817.612 397.04C818.849 399.561 824.744 410.094 826.272 411.651C827.8 413.209 830.639 413.431 830.639 413.431C830.639 413.431 832.749 415.731 836.752 415.36C836.752 415.36 840.245 417.807 843.011 418.401C843.011 418.401 843.957 420.181 844.83 420.329C845.776 420.478 846.941 418.549 845.194 414.766C843.52 410.984 840.682 409.352 840.245 406.904C839.809 404.457 837.625 399.487 837.625 399.487C837.625 399.487 842.501 404.531 845.485 404.902C848.469 405.273 848.906 403.418 847.232 401.935C845.558 400.451 843.448 398.226 841.483 395.334C839.518 392.441 837.043 390.587 833.259 390.068C829.474 389.548 826.782 389.103 825.763 388.362C824.744 387.62 819.795 380.425 816.375 372.637C812.954 364.85 809.897 354.911 801.31 346.233L805.094 339.483L789.738 333.401Z" fill="#FFC5C7"/>
<path d="M842.792 417.956C842.065 415.805 840.682 413.95 839.226 412.319L838.644 411.725C838.499 411.577 838.135 411.28 838.062 411.206C837.771 410.835 837.48 410.316 837.189 409.871C836.606 408.907 836.097 407.943 835.515 406.978C835.806 408.091 836.17 409.129 836.606 410.168C836.825 410.687 837.043 411.206 837.407 411.725C837.625 412.096 837.844 412.17 837.989 412.393L838.571 412.986C839.299 413.802 840.027 414.618 840.755 415.434C841.482 416.25 842.137 417.066 842.792 417.956Z" fill="#FE8A8B"/>
<path d="M836.533 414.692C835.951 413.58 835.296 412.541 834.641 411.503C833.986 410.465 833.477 409.426 832.895 408.314C832.822 409.649 833.331 410.91 833.986 411.948C834.568 413.06 835.442 414.025 836.533 414.692Z" fill="#FE8A8B"/>
<path d="M833.476 415.137C831.583 414.618 830.564 413.506 830.564 413.506C830.564 413.506 827.799 413.283 826.198 411.725C825.543 411.058 824.233 408.907 822.705 406.459C822.705 406.534 824.451 408.462 825.761 410.02C827.508 412.245 830.055 411.503 830.055 411.503L829.691 409.426C829.764 409.426 831.438 414.099 833.476 415.137Z" fill="#FE8A8B"/>
<path d="M784.281 347.123C784.353 349.051 784.353 350.609 787.192 355.653C790.394 361.364 809.389 385.395 813.537 389.845C817.685 394.295 817.54 394.592 820.014 401.638C818.922 399.636 817.976 397.93 817.612 397.04C816.375 394.518 814.847 393.257 807.933 385.469C801.019 377.681 785.882 356.913 784.353 352.315C783.917 350.98 783.917 349.126 784.281 347.123Z" fill="#FE8A8B"/>
<path d="M799.198 341.56L797.67 344.156C797.67 344.156 799.78 344.749 801.309 346.307L804.293 341.115L799.198 341.56Z" fill="#FE8A8B"/>
<path d="M817.393 327.171C821.395 319.235 822.924 306.255 819.358 299.505C815.792 292.682 809.023 290.234 807.349 291.05C805.676 291.866 801.163 302.472 796.942 307.367C792.721 312.263 781.222 325.984 780.859 327.171C780.495 328.358 789.228 337.703 805.53 344.527C807.495 345.343 817.393 327.171 817.393 327.171Z" fill="white"/>
<path d="M805.313 333.401L802.693 338.816C802.693 338.816 815.502 325.687 820.887 315.897C820.232 319.976 819.068 323.981 817.467 327.171C817.467 327.171 807.569 345.343 805.604 344.527C802.838 343.34 800.291 342.079 797.89 340.818L805.313 333.401Z" fill="#DCEDFF"/>
<path d="M854.435 262.643C853.562 259.008 853.562 255.3 853.344 251.517C853.198 248.699 853.053 246.177 850.578 244.545C848.759 243.358 846.503 243.062 844.392 243.358C838.643 244.1 837.406 249.811 837.842 255.151C838.206 259.305 839.735 263.236 841.336 267.019C839.225 266.945 836.314 265.832 835.077 263.978C835.659 266.351 836.678 268.502 838.425 270.134C832.311 270.06 826.635 265.98 823.433 260.492C820.23 255.003 819.139 248.328 819.503 241.875C819.939 234.235 822.268 226.596 826.926 220.662C836.241 208.795 854.217 207.46 865.206 217.621C868.991 221.107 871.684 225.78 873.066 230.898C874.886 237.573 874.813 244.768 873.43 251.517C872.848 254.336 872.557 256.709 872.339 259.528C872.266 260.418 871.247 270.505 871.829 270.431C867.972 270.653 863.533 269.911 860.913 266.87C862.077 268.947 863.096 270.95 864.26 273.027C859.239 272.359 855.673 267.686 854.435 262.643Z" fill="#372D5B"/>
<path d="M834.423 248.921C832.676 247.883 830.638 247.289 829.037 248.995C826.708 251.443 830.056 262.791 835.078 260.047C835.078 260.047 842.428 270.505 847.814 273.472C853.199 276.438 857.056 274.955 859.094 272.804C861.132 270.653 868.046 261.975 869.283 252.778C869.72 249.515 869.283 243.062 869.356 241.652C869.647 237.425 871.248 233.939 867.973 230.601C864.625 227.263 860.04 225.187 855.383 225.038C849.488 224.816 843.593 227.486 839.735 232.01C835.442 236.98 834.641 242.617 834.423 248.921Z" fill="#FFC5C7"/>
<path d="M829.837 252.036C830.274 249.96 832.02 249.515 833.33 250.998C834.64 252.481 834.859 257.154 834.567 257.896C834.204 258.563 831.947 258.563 831.511 257.08C831.074 255.671 832.384 254.781 833.694 255.151C833.694 255.151 834.058 253.075 833.039 251.74C832.02 250.405 830.929 250.924 830.637 251.22C830.274 251.591 829.837 252.036 829.837 252.036Z" fill="#FE8A8B"/>
<path d="M843.882 242.913C844.392 242.468 844.901 242.023 845.411 241.578C845.993 241.207 846.575 240.837 847.157 240.54C847.812 240.243 848.395 239.947 849.122 239.872C849.777 239.798 850.505 239.872 851.087 240.169V240.243C850.723 240.392 850.432 240.466 850.141 240.54L849.195 240.762C848.613 240.911 847.958 240.985 847.376 241.207C846.793 241.43 846.211 241.652 845.629 241.949C845.047 242.246 844.465 242.617 843.882 242.913Z" fill="#3F1751"/>
<path d="M866.879 240.466C866.297 240.169 865.714 239.947 865.132 239.798C864.55 239.65 863.895 239.576 863.24 239.576C862.585 239.576 862.003 239.724 861.348 239.724C860.693 239.724 860.111 239.724 859.383 239.65V239.576C859.965 239.131 860.62 238.908 861.348 238.76C862.003 238.611 862.731 238.76 863.386 238.834C864.041 238.908 864.696 239.131 865.278 239.353C865.86 239.65 866.442 239.947 866.952 240.392L866.879 240.466Z" fill="#3F1751"/>
<path d="M850.068 246.622C850.068 245.732 849.631 245.064 849.049 245.064C848.54 245.139 848.103 245.88 848.176 246.77C848.176 247.66 848.613 248.328 849.195 248.328C849.704 248.254 850.141 247.512 850.068 246.622Z" fill="#3F1751"/>
<path d="M863.969 245.435C863.969 244.545 863.605 243.878 863.168 243.878C862.732 243.952 862.44 244.694 862.44 245.584C862.44 246.474 862.804 247.141 863.241 247.141C863.678 247.141 863.969 246.399 863.969 245.435Z" fill="#3F1751"/>
<path d="M854.435 255.3C855.672 256.116 857.419 256.116 858.729 255.226C858.583 255.893 858.292 256.561 857.637 256.857C856.982 257.08 856.254 257.006 855.672 256.783C855.017 256.487 854.799 255.893 854.435 255.3Z" fill="#FE8A8B"/>
<path d="M849.631 260.566C852.542 260.64 859.529 260.047 861.785 259.75C860.912 262.717 858.51 265.684 855.235 265.684C852.251 265.684 850.359 263.236 849.631 260.566Z" fill="#C31F2A"/>
<path d="M852.251 264.72C853.415 264.349 854.58 264.571 855.017 264.72C855.017 264.72 856.545 263.607 858.801 264.349C857.782 265.165 856.545 265.758 855.162 265.758C854.07 265.684 853.124 265.313 852.251 264.72Z" fill="#FB8384"/>
<path d="M859.82 262.272C856.909 263.236 853.707 262.939 850.941 261.901C850.941 261.456 850.869 261.011 850.869 260.566C853.707 260.492 858.365 260.121 860.839 259.898C860.548 260.714 860.257 261.53 859.82 262.272Z" fill="white"/>
<path d="M837.333 239.131C842.064 238.908 846.722 237.87 851.161 236.016C851.962 234.087 852.034 232.307 852.18 230.156C853.344 232.381 854.072 234.829 854.218 237.425C856.983 237.276 859.749 237.128 862.514 236.906C863.315 234.68 863.388 232.381 863.242 230.008C864.188 232.233 864.625 234.977 864.989 237.425C866.663 236.831 868.773 237.721 870.52 238.018C872.703 233.123 872.558 224.297 867.973 220.588C863.533 216.954 855.819 215.99 850.433 216.805C838.935 218.511 829.837 228.228 830.565 240.392C831.002 247.289 834.35 253.891 839.298 258.712C836.169 252.852 835.587 245.584 837.333 239.131Z" fill="#372D5B"/>
<path d="M1064.07 284.036C1069.12 264.253 1057.47 244.049 1038.06 238.908C1018.65 233.767 998.823 245.637 993.779 265.419C988.735 285.202 1000.38 305.406 1019.79 310.547C1039.2 315.688 1059.03 303.818 1064.07 284.036Z" fill="#EF9DA9"/>
<path d="M1011.03 289.208H1046.82C1048.47 289.208 1049.77 287.88 1049.77 286.197V263.265C1049.77 261.582 1048.47 260.254 1046.82 260.254H1011.03C1009.37 260.254 1008.07 261.582 1008.07 263.265V286.197C1008.07 287.791 1009.37 289.208 1011.03 289.208Z" fill="white"/>
<path d="M1011.03 289.208H1046.82C1048.47 289.208 1049.77 287.88 1049.77 286.197L1028.92 272.827L1008.07 286.197C1008.07 287.791 1009.37 289.208 1011.03 289.208Z" fill="white"/>
<path d="M1011.03 260.166H1046.82C1048.47 260.166 1049.77 261.494 1049.77 263.176L1028.92 276.546L1008.07 263.176C1008.07 261.582 1009.37 260.166 1011.03 260.166Z" fill="#796AB8"/>
<path d="M1294.54 363.957C1314.08 359.344 1326.25 339.461 1321.72 319.548C1317.19 299.634 1297.68 287.231 1278.15 291.845C1258.61 296.458 1246.44 316.341 1250.96 336.254C1255.49 356.168 1275 368.571 1294.54 363.957Z" fill="#EF9DA9"/>
<path d="M1296.51 320.73H1292.86C1292.52 319.224 1291.99 317.896 1291.21 316.657L1293.82 314C1294.17 313.646 1294.17 313.026 1293.82 312.672L1290.95 309.75C1290.6 309.396 1290 309.396 1289.65 309.75L1287.04 312.406C1285.83 311.61 1284.52 311.078 1283.05 310.724V307.005C1283.05 306.474 1282.61 306.12 1282.18 306.12H1278.09C1277.57 306.12 1277.22 306.563 1277.22 307.005V310.724C1275.75 311.078 1274.44 311.61 1273.23 312.406L1270.62 309.75C1270.27 309.396 1269.67 309.396 1269.32 309.75L1266.45 312.672C1266.1 313.026 1266.1 313.646 1266.45 314L1269.06 316.657C1268.28 317.896 1267.75 319.224 1267.41 320.73H1263.76C1263.24 320.73 1262.89 321.172 1262.89 321.615V325.777C1262.89 326.308 1263.32 326.662 1263.76 326.662H1267.41C1267.75 328.167 1268.28 329.495 1269.06 330.735L1266.45 333.391C1266.1 333.745 1266.1 334.365 1266.45 334.719L1269.32 337.641C1269.67 337.996 1270.27 337.996 1270.62 337.641L1273.23 334.985C1274.44 335.782 1275.75 336.313 1277.22 336.667V340.386C1277.22 340.918 1277.66 341.272 1278.09 341.272H1282.18C1282.7 341.272 1283.05 340.829 1283.05 340.386V336.667C1284.52 336.313 1285.83 335.782 1287.04 334.985L1289.65 337.641C1290 337.996 1290.6 337.996 1290.95 337.641L1293.82 334.719C1294.17 334.365 1294.17 333.745 1293.82 333.391L1291.21 330.735C1291.99 329.495 1292.52 328.167 1292.86 326.662H1296.51C1297.03 326.662 1297.38 326.219 1297.38 325.777V321.615C1297.38 321.084 1297.03 320.73 1296.51 320.73ZM1280.09 329.407C1276.96 329.407 1274.53 326.839 1274.53 323.74C1274.53 320.552 1277.05 318.073 1280.09 318.073C1283.22 318.073 1285.65 320.641 1285.65 323.74C1285.74 326.839 1283.22 329.407 1280.09 329.407Z" fill="white"/>
<path d="M1280.09 315.771C1275.75 315.771 1272.27 319.313 1272.27 323.74C1272.27 328.167 1275.75 331.709 1280.09 331.709C1284.44 331.709 1287.91 328.167 1287.91 323.74C1287.91 319.313 1284.44 315.771 1280.09 315.771ZM1280.09 328.522C1277.49 328.522 1275.31 326.308 1275.31 323.652C1275.31 320.995 1277.49 318.782 1280.09 318.782C1282.7 318.782 1284.87 320.995 1284.87 323.652C1284.87 326.308 1282.7 328.522 1280.09 328.522Z" fill="#796AB8"/>
<path d="M1312.06 337.022H1310.24C1310.07 336.313 1309.81 335.605 1309.37 334.897L1310.67 333.569C1310.85 333.391 1310.85 333.126 1310.67 332.86L1309.2 331.355C1309.02 331.178 1308.76 331.178 1308.5 331.355L1307.2 332.683C1306.59 332.329 1305.9 331.975 1305.11 331.798V329.938C1305.11 329.673 1304.94 329.496 1304.68 329.496H1302.59C1302.33 329.496 1302.16 329.673 1302.16 329.938V331.798C1301.47 331.975 1300.77 332.24 1300.08 332.683L1298.77 331.355C1298.6 331.178 1298.34 331.178 1298.08 331.355L1296.6 332.86C1296.43 333.037 1296.43 333.303 1296.6 333.569L1297.9 334.897C1297.56 335.516 1297.21 336.225 1297.03 337.022H1295.38C1295.12 337.022 1294.95 337.199 1294.95 337.464V339.59C1294.95 339.855 1295.12 340.032 1295.38 340.032H1297.21C1297.38 340.741 1297.64 341.449 1298.08 342.157L1296.77 343.485C1296.6 343.663 1296.6 343.928 1296.77 344.194L1298.25 345.699C1298.42 345.876 1298.69 345.876 1298.95 345.699L1300.25 344.371C1300.86 344.725 1301.55 345.079 1302.33 345.256V347.116C1302.33 347.381 1302.51 347.558 1302.77 347.558H1304.85C1305.11 347.558 1305.29 347.381 1305.29 347.116V345.256C1305.98 345.079 1306.68 344.814 1307.37 344.371L1308.68 345.699C1308.85 345.876 1309.11 345.876 1309.37 345.699L1310.85 344.194C1311.02 344.017 1311.02 343.751 1310.85 343.485L1309.55 342.157C1309.89 341.537 1310.24 340.829 1310.41 340.032H1312.24C1312.5 340.032 1312.67 339.855 1312.67 339.59V337.464C1312.59 337.199 1312.33 337.022 1312.06 337.022ZM1303.72 341.449C1302.16 341.449 1300.86 340.121 1300.86 338.527C1300.86 336.933 1302.16 335.605 1303.72 335.605C1305.29 335.605 1306.59 336.933 1306.59 338.527C1306.59 340.121 1305.29 341.449 1303.72 341.449Z" fill="white"/>
<path d="M1303.72 334.454C1301.55 334.454 1299.73 336.313 1299.73 338.527C1299.73 340.741 1301.55 342.6 1303.72 342.6C1305.9 342.6 1307.72 340.741 1307.72 338.527C1307.72 336.313 1305.9 334.454 1303.72 334.454ZM1303.72 341.006C1302.42 341.006 1301.29 339.855 1301.29 338.527C1301.29 337.199 1302.42 336.048 1303.72 336.048C1305.03 336.048 1306.16 337.199 1306.16 338.527C1306.16 339.855 1305.03 341.006 1303.72 341.006Z" fill="#796AB8"/>
<path d="M1136.14 257.487C1154.75 249.861 1163.76 228.304 1156.28 209.339C1148.8 190.374 1127.65 181.182 1109.04 188.809C1090.43 196.435 1081.41 217.992 1088.89 236.957C1096.38 255.922 1117.53 265.113 1136.14 257.487Z" fill="#EF9DA9"/>
<path d="M1104.51 242.191H1140.56C1142.13 242.191 1143.43 240.863 1143.43 239.269V208.633C1143.43 207.039 1142.13 205.711 1140.56 205.711H1104.51C1102.94 205.711 1101.64 207.039 1101.64 208.633V239.181C1101.64 240.863 1102.94 242.191 1104.51 242.191Z" fill="white"/>
<path d="M1101.64 213.326H1143.43V208.633C1143.43 207.039 1142.13 205.711 1140.56 205.711H1104.51C1102.94 205.711 1101.64 207.039 1101.64 208.633V213.326Z" fill="#796AB8"/>
<path d="M1133.44 207.394C1133.87 207.394 1134.31 207.04 1134.31 206.508V205.003C1134.31 204.56 1133.96 204.118 1133.44 204.118C1133 204.118 1132.57 204.472 1132.57 205.003V206.508C1132.57 206.951 1133 207.394 1133.44 207.394Z" fill="white"/>
<path d="M1135.87 207.394C1136.31 207.394 1136.74 207.04 1136.74 206.508V205.003C1136.74 204.56 1136.39 204.118 1135.87 204.118C1135.44 204.118 1135 204.472 1135 205.003V206.508C1135 206.951 1135.44 207.394 1135.87 207.394Z" fill="white"/>
<path d="M1109.2 207.394C1109.63 207.394 1110.07 207.039 1110.07 206.508V205.003C1110.07 204.56 1109.72 204.118 1109.2 204.118C1108.76 204.118 1108.33 204.472 1108.33 205.003V206.508C1108.33 206.951 1108.76 207.394 1109.2 207.394Z" fill="white"/>
<path d="M1111.63 207.394C1112.07 207.394 1112.5 207.039 1112.5 206.508V205.003C1112.5 204.56 1112.15 204.117 1111.63 204.117C1111.2 204.117 1110.76 204.472 1110.76 205.003V206.508C1110.76 206.951 1111.2 207.394 1111.63 207.394Z" fill="white"/>
<path d="M1125.18 221.561H1127.44C1127.79 221.561 1128.14 221.206 1128.14 220.852V218.55C1128.14 218.196 1127.79 217.842 1127.44 217.842H1125.18C1124.84 217.842 1124.49 218.196 1124.49 218.55V220.852C1124.49 221.295 1124.84 221.561 1125.18 221.561Z" fill="white"/>
<path d="M1116.58 221.561H1118.84C1119.19 221.561 1119.54 221.206 1119.54 220.852V218.55C1119.54 218.196 1119.19 217.842 1118.84 217.842H1116.58C1116.24 217.842 1115.89 218.196 1115.89 218.55V220.852C1115.89 221.295 1116.15 221.561 1116.58 221.561Z" fill="white"/>
<path d="M1107.98 221.561H1110.24C1110.59 221.561 1110.94 221.206 1110.94 220.852V218.55C1110.94 218.196 1110.59 217.842 1110.24 217.842H1107.98C1107.64 217.842 1107.29 218.196 1107.29 218.55V220.852C1107.29 221.295 1107.55 221.561 1107.98 221.561Z" fill="white"/>
<path d="M1133.79 229.175H1136.04C1136.39 229.175 1136.74 228.821 1136.74 228.467V226.165C1136.74 225.811 1136.39 225.456 1136.04 225.456H1133.79C1133.44 225.456 1133.09 225.811 1133.09 226.165V228.467C1133.09 228.821 1133.44 229.175 1133.79 229.175Z" fill="white"/>
<path d="M1125.18 229.175H1127.44C1127.79 229.175 1128.14 228.821 1128.14 228.467V226.165C1128.14 225.811 1127.79 225.456 1127.44 225.456H1125.18C1124.84 225.456 1124.49 225.811 1124.49 226.165V228.467C1124.49 228.821 1124.84 229.175 1125.18 229.175Z" fill="white"/>
<path d="M1116.58 229.175H1118.84C1119.19 229.175 1119.54 228.821 1119.54 228.467V226.165C1119.54 225.811 1119.19 225.456 1118.84 225.456H1116.58C1116.24 225.456 1115.89 225.811 1115.89 226.165V228.467C1115.89 228.821 1116.15 229.175 1116.58 229.175Z" fill="white"/>
<path d="M1107.98 229.175H1110.24C1110.59 229.175 1110.94 228.821 1110.94 228.467V226.165C1110.94 225.811 1110.59 225.456 1110.24 225.456H1107.98C1107.64 225.456 1107.29 225.811 1107.29 226.165V228.467C1107.29 228.821 1107.55 229.175 1107.98 229.175Z" fill="white"/>
<path d="M1133.79 236.702H1136.04C1136.39 236.702 1136.74 236.347 1136.74 235.993V233.691C1136.74 233.337 1136.39 232.983 1136.04 232.983H1133.79C1133.44 232.983 1133.09 233.337 1133.09 233.691V235.993C1133.09 236.347 1133.44 236.702 1133.79 236.702Z" fill="white"/>
<path d="M1125.18 236.702H1127.44C1127.79 236.702 1128.14 236.347 1128.14 235.993V233.691C1128.14 233.337 1127.79 232.983 1127.44 232.983H1125.18C1124.84 232.983 1124.49 233.337 1124.49 233.691V235.993C1124.49 236.347 1124.84 236.702 1125.18 236.702Z" fill="white"/>
<path d="M1116.58 236.702H1118.84C1119.19 236.702 1119.54 236.347 1119.54 235.993V233.691C1119.54 233.337 1119.19 232.983 1118.84 232.983H1116.58C1116.24 232.983 1115.89 233.337 1115.89 233.691V235.993C1115.89 236.347 1116.15 236.702 1116.58 236.702Z" fill="white"/>
<path d="M1252.18 268.337C1266.37 253.883 1266.37 230.449 1252.18 215.995C1238 201.542 1215.01 201.542 1200.83 215.995C1186.64 230.449 1186.64 253.883 1200.83 268.337C1215.01 282.79 1238 282.79 1252.18 268.337Z" fill="#EF9DA9"/>
<path d="M1244.08 260.072C1253.78 250.183 1253.78 234.149 1244.08 224.26C1234.37 214.37 1218.64 214.37 1208.94 224.26C1199.23 234.149 1199.23 250.183 1208.94 260.072C1218.64 269.962 1234.37 269.962 1244.08 260.072Z" fill="white"/>
<path d="M1226.49 216.779C1212.76 216.779 1201.64 228.113 1201.64 242.103C1201.64 256.093 1212.76 267.426 1226.49 267.426C1240.21 267.426 1251.34 256.093 1251.34 242.103C1251.34 228.113 1240.21 216.779 1226.49 216.779ZM1228.57 263.707V260.254C1228.57 259.634 1228.05 259.103 1227.44 259.103H1225.53C1224.92 259.103 1224.4 259.634 1224.4 260.254V263.707C1214.32 262.733 1206.24 254.499 1205.29 244.228H1208.68C1209.29 244.228 1209.81 243.697 1209.81 243.077V241.217C1209.81 240.598 1209.29 240.066 1208.68 240.066H1205.29C1206.24 229.795 1214.32 221.561 1224.4 220.587V224.04C1224.4 224.66 1224.92 225.191 1225.53 225.191H1227.44C1228.05 225.191 1228.57 224.66 1228.57 224.04V220.587C1238.65 221.561 1246.73 229.795 1247.69 240.066H1244.3C1243.69 240.066 1243.17 240.598 1243.17 241.217V243.165C1243.17 243.785 1243.69 244.316 1244.3 244.316H1247.69C1246.64 254.587 1238.65 262.733 1228.57 263.707Z" fill="#796AB8"/>
<path d="M1211.27 248.215V247.257L1214.87 243.315C1215.29 242.853 1215.64 242.452 1215.92 242.111C1216.19 241.766 1216.39 241.443 1216.52 241.141C1216.66 240.836 1216.73 240.516 1216.73 240.183C1216.73 239.799 1216.63 239.467 1216.45 239.187C1216.27 238.906 1216.02 238.689 1215.7 238.537C1215.39 238.384 1215.03 238.308 1214.64 238.308C1214.22 238.308 1213.85 238.395 1213.54 238.569C1213.23 238.739 1212.99 238.979 1212.82 239.288C1212.65 239.597 1212.57 239.959 1212.57 240.374H1211.31C1211.31 239.735 1211.46 239.174 1211.76 238.691C1212.05 238.208 1212.45 237.832 1212.96 237.562C1213.47 237.292 1214.04 237.157 1214.68 237.157C1215.32 237.157 1215.89 237.292 1216.38 237.562C1216.87 237.832 1217.26 238.196 1217.54 238.654C1217.82 239.112 1217.96 239.622 1217.96 240.183C1217.96 240.584 1217.89 240.976 1217.74 241.36C1217.6 241.74 1217.35 242.164 1217 242.633C1216.65 243.098 1216.16 243.666 1215.53 244.337L1213.08 246.958V247.043H1218.15V248.215H1211.27ZM1219.86 245.978V244.891L1224.66 237.306H1225.45V238.989H1224.91L1221.29 244.721V244.806H1227.75V245.978H1219.86ZM1225 248.215V245.648V245.142V237.306H1226.25V248.215H1225ZM1233.62 236.795L1230.1 249.856H1228.95L1232.47 236.795H1233.62ZM1235.43 248.215L1240.31 238.563V238.478H1234.68V237.306H1241.67V238.542L1236.82 248.215H1235.43Z" fill="#796AB8"/>
<defs>
<linearGradient id="paint0_linear_1_15935" x1="720" y1="0" x2="720" y2="700" gradientUnits="userSpaceOnUse">
<stop stop-color="#9686DA"/>
<stop offset="1" stop-color="#796AB8"/>
</linearGradient>
<linearGradient id="paint1_linear_1_15935" x1="720" y1="0" x2="720" y2="700" gradientUnits="userSpaceOnUse">
<stop stop-color="#9686DA"/>
<stop offset="1" stop-color="#796AB8"/>
</linearGradient>
<linearGradient id="paint2_linear_1_15935" x1="720" y1="0" x2="720" y2="700" gradientUnits="userSpaceOnUse">
<stop stop-color="#9686DA"/>
<stop offset="1" stop-color="#796AB8"/>
</linearGradient>
</defs>
</svg>
