<svg width="720" height="50" viewBox="0 0 720 50" fill="none" xmlns="http://www.w3.org/2000/svg">
<path d="M720 11V50H0L53.5431 17.6892C72.7207 6.11638 94.6944 0 117.093 0H709C715.075 0 720 4.92487 720 11Z" fill="url(#paint0_linear_55_847)"/>
<path d="M328.926 26.7529H330.58C330.548 27.473 330.402 28.0859 330.143 28.5918C329.883 29.0931 329.509 29.4759 329.021 29.7402C328.538 30.0046 327.948 30.1367 327.251 30.1367C326.722 30.1367 326.248 30.041 325.829 29.8496C325.414 29.6582 325.061 29.3825 324.77 29.0225C324.478 28.6579 324.255 28.2135 324.1 27.6895C323.949 27.1654 323.874 26.5706 323.874 25.9053V24.1416C323.874 23.4762 323.951 22.8815 324.106 22.3574C324.266 21.8333 324.494 21.389 324.79 21.0244C325.086 20.6598 325.446 20.3841 325.87 20.1973C326.299 20.0059 326.782 19.9102 327.319 19.9102C328.007 19.9102 328.586 20.0423 329.056 20.3066C329.525 20.571 329.887 20.9583 330.143 21.4688C330.398 21.9792 330.546 22.6012 330.587 23.335H328.933C328.91 22.8382 328.841 22.4417 328.728 22.1455C328.618 21.8447 328.45 21.6283 328.222 21.4961C327.998 21.3639 327.698 21.2979 327.319 21.2979C327.005 21.2979 326.734 21.3571 326.506 21.4756C326.283 21.5941 326.098 21.7718 325.952 22.0088C325.811 22.2412 325.704 22.5352 325.631 22.8906C325.562 23.2415 325.528 23.654 325.528 24.1279V25.9053C325.528 26.361 325.558 26.7643 325.617 27.1152C325.676 27.4661 325.772 27.7646 325.904 28.0107C326.036 28.2523 326.212 28.4368 326.431 28.5645C326.649 28.6875 326.923 28.749 327.251 28.749C327.643 28.749 327.955 28.6875 328.188 28.5645C328.424 28.4414 328.6 28.234 328.714 27.9424C328.828 27.6507 328.898 27.2542 328.926 26.7529ZM338.797 24.21V25.9053C338.797 26.6071 338.715 27.2223 338.551 27.751C338.391 28.2796 338.159 28.7217 337.854 29.0771C337.553 29.4281 337.188 29.6924 336.76 29.8701C336.336 30.0479 335.862 30.1367 335.338 30.1367C334.818 30.1367 334.344 30.0479 333.916 29.8701C333.492 29.6924 333.125 29.4281 332.815 29.0771C332.51 28.7217 332.273 28.2796 332.104 27.751C331.94 27.2223 331.858 26.6071 331.858 25.9053V24.21C331.858 23.499 331.94 22.877 332.104 22.3438C332.269 21.806 332.503 21.3571 332.809 20.9971C333.118 20.637 333.485 20.3659 333.909 20.1836C334.338 20.0013 334.809 19.9102 335.324 19.9102C335.848 19.9102 336.322 20.0013 336.746 20.1836C337.174 20.3659 337.541 20.637 337.847 20.9971C338.152 21.3571 338.387 21.806 338.551 22.3438C338.715 22.877 338.797 23.499 338.797 24.21ZM337.149 25.9053V24.1963C337.149 23.6904 337.108 23.2575 337.026 22.8975C336.949 22.5329 336.833 22.2367 336.678 22.0088C336.523 21.7764 336.331 21.6055 336.104 21.4961C335.88 21.3822 335.62 21.3252 335.324 21.3252C335.037 21.3252 334.78 21.3822 334.552 21.4961C334.328 21.6055 334.137 21.7764 333.978 22.0088C333.823 22.2367 333.704 22.5329 333.622 22.8975C333.545 23.2575 333.506 23.6904 333.506 24.1963V25.9053C333.506 26.402 333.547 26.8304 333.629 27.1904C333.711 27.5459 333.829 27.8376 333.984 28.0654C334.144 28.2887 334.338 28.4551 334.565 28.5645C334.793 28.6738 335.051 28.7285 335.338 28.7285C335.63 28.7285 335.889 28.6738 336.117 28.5645C336.345 28.4551 336.534 28.2887 336.685 28.0654C336.84 27.8376 336.956 27.5459 337.033 27.1904C337.111 26.8304 337.149 26.402 337.149 25.9053ZM343.767 26.3086H341.668V24.9209H343.767C344.113 24.9209 344.391 24.848 344.601 24.7021C344.81 24.5563 344.963 24.3558 345.059 24.1006C345.159 23.8454 345.209 23.556 345.209 23.2324C345.209 22.9225 345.159 22.6309 345.059 22.3574C344.963 22.084 344.81 21.863 344.601 21.6943C344.391 21.5257 344.113 21.4414 343.767 21.4414H342.133V30H340.479V20.0469H343.767C344.427 20.0469 344.988 20.1836 345.448 20.457C345.913 20.7305 346.269 21.1064 346.515 21.585C346.761 22.0589 346.884 22.6035 346.884 23.2188C346.884 23.8568 346.761 24.4082 346.515 24.873C346.269 25.3333 345.913 25.6888 345.448 25.9395C344.988 26.1855 344.427 26.3086 343.767 26.3086ZM349.413 20.0469L351.163 24.7637L352.913 20.0469H354.745L351.997 26.3359V30H350.322V26.3359L347.574 20.0469H349.413ZM355.853 20.0469H358.86C359.517 20.0469 360.073 20.1608 360.528 20.3887C360.984 20.6165 361.33 20.9538 361.567 21.4004C361.809 21.8424 361.93 22.3916 361.93 23.0479C361.93 23.5446 361.854 23.9821 361.704 24.3604C361.558 24.7386 361.346 25.0576 361.068 25.3174C360.79 25.5726 360.455 25.7708 360.063 25.9121L359.578 26.1787H357.035L357.028 24.7842H358.819C359.143 24.7842 359.412 24.7135 359.626 24.5723C359.84 24.431 360 24.235 360.104 23.9844C360.214 23.7337 360.269 23.4489 360.269 23.1299C360.269 22.7881 360.221 22.4919 360.125 22.2412C360.029 21.986 359.879 21.79 359.674 21.6533C359.469 21.512 359.198 21.4414 358.86 21.4414H357.514V30H355.853V20.0469ZM360.487 30L358.594 25.5293L360.323 25.5225L362.265 29.9111V30H360.487ZM365.177 20.0469V30H363.516V20.0469H365.177ZM373.612 24.8936V28.8174C373.489 28.9678 373.302 29.1478 373.052 29.3574C372.806 29.5625 372.473 29.7448 372.054 29.9043C371.639 30.0592 371.115 30.1367 370.481 30.1367C369.948 30.1367 369.461 30.0501 369.019 29.877C368.581 29.7038 368.205 29.4417 367.891 29.0908C367.576 28.7399 367.335 28.3024 367.166 27.7783C366.997 27.2497 366.913 26.6253 366.913 25.9053V24.1348C366.913 23.4238 366.988 22.804 367.139 22.2754C367.294 21.7467 367.519 21.307 367.815 20.9561C368.112 20.6006 368.472 20.3385 368.896 20.1699C369.319 19.9967 369.807 19.9102 370.358 19.9102C371.056 19.9102 371.637 20.0332 372.102 20.2793C372.571 20.5208 372.929 20.8809 373.175 21.3594C373.425 21.8333 373.571 22.4121 373.612 23.0957H371.992C371.956 22.6764 371.876 22.3369 371.753 22.0771C371.634 21.8128 371.464 21.6169 371.24 21.4893C371.017 21.3617 370.73 21.2979 370.379 21.2979C370.06 21.2979 369.786 21.3525 369.559 21.4619C369.331 21.5713 369.144 21.7422 368.998 21.9746C368.852 22.2025 368.745 22.4941 368.677 22.8496C368.608 23.2051 368.574 23.6289 368.574 24.1211V25.9053C368.574 26.4066 368.618 26.8372 368.704 27.1973C368.791 27.5573 368.916 27.8535 369.08 28.0859C369.249 28.3138 369.456 28.4824 369.702 28.5918C369.948 28.6966 370.229 28.749 370.543 28.749C370.853 28.749 371.099 28.7171 371.281 28.6533C371.464 28.5895 371.605 28.5189 371.705 28.4414C371.81 28.3594 371.894 28.2956 371.958 28.25V26.1992H370.352V24.8936H373.612ZM380.79 24.1895V25.584H376.6V24.1895H380.79ZM376.989 20.0469V30H375.328V20.0469H376.989ZM382.089 20.0469V30H380.435V20.0469H382.089ZM387.38 20.0469V30H385.726V20.0469H387.38ZM389.916 20.0469V21.4414H383.217V20.0469H389.916ZM399.801 25.9189H400.833C400.833 26.6344 400.628 27.1722 400.218 27.5322C399.808 27.8877 399.252 28.0654 398.55 28.0654C398.067 28.0654 397.647 27.9538 397.292 27.7305C396.937 27.5072 396.661 27.1973 396.465 26.8008C396.273 26.4043 396.178 25.944 396.178 25.4199V24.6201C396.178 24.096 396.273 23.6357 396.465 23.2393C396.661 22.8428 396.937 22.5329 397.292 22.3096C397.647 22.0863 398.067 21.9746 398.55 21.9746C399.252 21.9746 399.808 22.1523 400.218 22.5078C400.632 22.8633 400.84 23.401 400.84 24.1211H399.808C399.808 23.6745 399.701 23.3555 399.486 23.1641C399.277 22.9727 398.965 22.877 398.55 22.877C398.258 22.877 398.012 22.9521 397.812 23.1025C397.611 23.2484 397.458 23.4535 397.354 23.7178C397.249 23.9775 397.196 24.276 397.196 24.6133V25.4199C397.196 25.7617 397.249 26.0648 397.354 26.3291C397.458 26.5889 397.611 26.7939 397.812 26.9443C398.012 27.0902 398.258 27.1631 398.55 27.1631C398.965 27.1631 399.277 27.0674 399.486 26.876C399.696 26.6846 399.801 26.3656 399.801 25.9189ZM394.605 25.0166C394.605 25.6227 394.71 26.1855 394.92 26.7051C395.13 27.2246 395.419 27.6803 395.788 28.0723C396.157 28.4596 396.586 28.7627 397.073 28.9814C397.565 29.1956 398.09 29.3027 398.646 29.3027C399.206 29.3027 399.728 29.1956 400.211 28.9814C400.699 28.7627 401.127 28.4596 401.496 28.0723C401.87 27.6803 402.161 27.2246 402.371 26.7051C402.581 26.181 402.686 25.6182 402.686 25.0166C402.686 24.4105 402.581 23.8499 402.371 23.335C402.161 22.8154 401.87 22.362 401.496 21.9746C401.127 21.5872 400.699 21.2865 400.211 21.0723C399.728 20.8535 399.206 20.7441 398.646 20.7441C398.09 20.7441 397.565 20.8535 397.073 21.0723C396.586 21.2865 396.157 21.5872 395.788 21.9746C395.419 22.362 395.13 22.8154 394.92 23.335C394.71 23.8499 394.605 24.4105 394.605 25.0166ZM393.792 25.0166C393.792 24.292 393.917 23.6198 394.168 23C394.419 22.3802 394.767 21.8402 395.214 21.3799C395.66 20.915 396.175 20.555 396.759 20.2998C397.347 20.04 397.976 19.9102 398.646 19.9102C399.315 19.9102 399.942 20.04 400.525 20.2998C401.113 20.555 401.628 20.915 402.07 21.3799C402.517 21.8402 402.866 22.3802 403.116 23C403.367 23.6198 403.492 24.292 403.492 25.0166C403.492 25.7412 403.367 26.4134 403.116 27.0332C402.866 27.653 402.517 28.1976 402.07 28.667C401.628 29.1318 401.113 29.4941 400.525 29.7539C399.942 30.0137 399.315 30.1436 398.646 30.1436C397.976 30.1436 397.347 30.0137 396.759 29.7539C396.175 29.4941 395.66 29.1318 395.214 28.667C394.767 28.1976 394.419 27.653 394.168 27.0332C393.917 26.4134 393.792 25.7412 393.792 25.0166ZM413.849 28.6602V30H408.12V28.8447L410.834 25.3242C411.13 24.9277 411.358 24.5859 411.518 24.2988C411.682 24.0072 411.796 23.7451 411.859 23.5127C411.923 23.2803 411.955 23.0524 411.955 22.8291C411.955 22.5192 411.912 22.2458 411.825 22.0088C411.743 21.7718 411.62 21.5872 411.456 21.4551C411.292 21.3184 411.091 21.25 410.854 21.25C410.558 21.25 410.314 21.3298 410.123 21.4893C409.932 21.6442 409.79 21.8607 409.699 22.1387C409.608 22.4121 409.562 22.7266 409.562 23.082H407.97C407.97 22.4987 408.081 21.9678 408.305 21.4893C408.533 21.0062 408.863 20.6234 409.296 20.3408C409.729 20.0537 410.255 19.9102 410.875 19.9102C411.449 19.9102 411.935 20.0218 412.331 20.2451C412.732 20.4684 413.035 20.7852 413.24 21.1953C413.45 21.6055 413.555 22.0931 413.555 22.6582C413.555 22.9681 413.511 23.278 413.425 23.5879C413.343 23.8932 413.227 24.1963 413.076 24.4971C412.926 24.7979 412.746 25.1009 412.536 25.4062C412.326 25.7116 412.092 26.0215 411.832 26.3359L410.116 28.6602H413.849ZM420.685 24.1895V25.8164C420.685 26.5957 420.616 27.2611 420.479 27.8125C420.347 28.3594 420.158 28.8037 419.912 29.1455C419.671 29.4873 419.379 29.738 419.037 29.8975C418.7 30.057 418.324 30.1367 417.909 30.1367C417.581 30.1367 417.273 30.0866 416.986 29.9863C416.699 29.8861 416.439 29.7288 416.207 29.5146C415.979 29.3005 415.783 29.0247 415.619 28.6875C415.46 28.3457 415.334 27.9378 415.243 27.4639C415.157 26.9899 415.113 26.4408 415.113 25.8164V24.1895C415.113 23.4056 415.182 22.7448 415.318 22.207C415.455 21.6647 415.646 21.2249 415.893 20.8877C416.139 20.5459 416.43 20.2975 416.768 20.1426C417.109 19.9876 417.488 19.9102 417.902 19.9102C418.23 19.9102 418.538 19.9603 418.825 20.0605C419.112 20.1562 419.37 20.3089 419.598 20.5186C419.826 20.7282 420.021 21.0016 420.186 21.3389C420.35 21.6715 420.473 22.0749 420.555 22.5488C420.641 23.0182 420.685 23.5651 420.685 24.1895ZM419.099 26.0557V23.9365C419.099 23.5446 419.08 23.1982 419.044 22.8975C419.007 22.5967 418.957 22.3415 418.894 22.1318C418.834 21.9222 418.755 21.7536 418.654 21.626C418.554 21.4938 418.44 21.3981 418.312 21.3389C418.189 21.2751 418.053 21.2432 417.902 21.2432C417.715 21.2432 417.547 21.291 417.396 21.3867C417.251 21.4824 417.125 21.6374 417.021 21.8516C416.92 22.0612 416.843 22.3392 416.788 22.6855C416.733 23.0273 416.706 23.4443 416.706 23.9365V26.0557C416.706 26.4521 416.724 26.8008 416.761 27.1016C416.797 27.4023 416.85 27.6621 416.918 27.8809C416.986 28.0951 417.068 28.2705 417.164 28.4072C417.26 28.5394 417.369 28.6374 417.492 28.7012C417.62 28.765 417.759 28.7969 417.909 28.7969C418.101 28.7969 418.269 28.7467 418.415 28.6465C418.565 28.5462 418.691 28.389 418.791 28.1748C418.891 27.9561 418.966 27.6712 419.017 27.3203C419.071 26.9694 419.099 26.5479 419.099 26.0557ZM427.849 28.6602V30H422.12V28.8447L424.834 25.3242C425.13 24.9277 425.358 24.5859 425.518 24.2988C425.682 24.0072 425.796 23.7451 425.859 23.5127C425.923 23.2803 425.955 23.0524 425.955 22.8291C425.955 22.5192 425.912 22.2458 425.825 22.0088C425.743 21.7718 425.62 21.5872 425.456 21.4551C425.292 21.3184 425.091 21.25 424.854 21.25C424.558 21.25 424.314 21.3298 424.123 21.4893C423.932 21.6442 423.79 21.8607 423.699 22.1387C423.608 22.4121 423.562 22.7266 423.562 23.082H421.97C421.97 22.4987 422.081 21.9678 422.305 21.4893C422.533 21.0062 422.863 20.6234 423.296 20.3408C423.729 20.0537 424.255 19.9102 424.875 19.9102C425.449 19.9102 425.935 20.0218 426.331 20.2451C426.732 20.4684 427.035 20.7852 427.24 21.1953C427.45 21.6055 427.555 22.0931 427.555 22.6582C427.555 22.9681 427.511 23.278 427.425 23.5879C427.343 23.8932 427.227 24.1963 427.076 24.4971C426.926 24.7979 426.746 25.1009 426.536 25.4062C426.326 25.7116 426.092 26.0215 425.832 26.3359L424.116 28.6602H427.849ZM434.849 28.6602V30H429.12V28.8447L431.834 25.3242C432.13 24.9277 432.358 24.5859 432.518 24.2988C432.682 24.0072 432.796 23.7451 432.859 23.5127C432.923 23.2803 432.955 23.0524 432.955 22.8291C432.955 22.5192 432.912 22.2458 432.825 22.0088C432.743 21.7718 432.62 21.5872 432.456 21.4551C432.292 21.3184 432.091 21.25 431.854 21.25C431.558 21.25 431.314 21.3298 431.123 21.4893C430.932 21.6442 430.79 21.8607 430.699 22.1387C430.608 22.4121 430.562 22.7266 430.562 23.082H428.97C428.97 22.4987 429.081 21.9678 429.305 21.4893C429.533 21.0062 429.863 20.6234 430.296 20.3408C430.729 20.0537 431.255 19.9102 431.875 19.9102C432.449 19.9102 432.935 20.0218 433.331 20.2451C433.732 20.4684 434.035 20.7852 434.24 21.1953C434.45 21.6055 434.555 22.0931 434.555 22.6582C434.555 22.9681 434.511 23.278 434.425 23.5879C434.343 23.8932 434.227 24.1963 434.076 24.4971C433.926 24.7979 433.746 25.1009 433.536 25.4062C433.326 25.7116 433.092 26.0215 432.832 26.3359L431.116 28.6602H434.849ZM442.99 21.4141L440.584 30H438.848L442.006 20.0469H443.086L442.99 21.4141ZM444.911 30L442.498 21.4141L442.382 20.0469H443.482L446.654 30H444.911ZM444.952 26.3018V27.6963H440.317V26.3018H444.952ZM453.729 28.6123V30H447.939V28.6123H453.729ZM453.606 21.1201L448.548 30H447.44V28.8926L452.52 20.0469H453.606V21.1201ZM452.991 20.0469V21.4414H447.434V20.0469H452.991ZM461.673 20.0469V30H460.019V20.0469H461.673ZM464.209 20.0469V21.4414H457.51V20.0469H464.209ZM465.528 20.0469H468.536C469.192 20.0469 469.748 20.1608 470.204 20.3887C470.66 20.6165 471.006 20.9538 471.243 21.4004C471.485 21.8424 471.605 22.3916 471.605 23.0479C471.605 23.5446 471.53 23.9821 471.38 24.3604C471.234 24.7386 471.022 25.0576 470.744 25.3174C470.466 25.5726 470.131 25.7708 469.739 25.9121L469.254 26.1787H466.711L466.704 24.7842H468.495C468.819 24.7842 469.088 24.7135 469.302 24.5723C469.516 24.431 469.675 24.235 469.78 23.9844C469.89 23.7337 469.944 23.4489 469.944 23.1299C469.944 22.7881 469.896 22.4919 469.801 22.2412C469.705 21.986 469.555 21.79 469.35 21.6533C469.145 21.512 468.873 21.4414 468.536 21.4414H467.189V30H465.528V20.0469ZM470.163 30L468.27 25.5293L469.999 25.5225L471.94 29.9111V30H470.163ZM478.667 28.6123V30H474.347V28.6123H478.667ZM474.784 20.0469V30H473.123V20.0469H474.784ZM478.086 24.1895V25.5566H474.347V24.1895H478.086ZM478.626 20.0469V21.4414H474.347V20.0469H478.626ZM483.473 21.4141L481.066 30H479.33L482.488 20.0469H483.568L483.473 21.4141ZM485.394 30L482.98 21.4141L482.864 20.0469H483.965L487.137 30H485.394ZM485.435 26.3018V27.6963H480.8V26.3018H485.435ZM491.026 20.0469V30H489.372V20.0469H491.026ZM493.562 20.0469V21.4414H486.863V20.0469H493.562ZM495.442 20.0469H496.953L499.243 27.4502L501.526 20.0469H502.928L499.865 30H498.614L495.442 20.0469ZM494.875 20.0469H496.27L496.495 26.3838V30H494.875V20.0469ZM502.203 20.0469H503.604V30H501.984V26.3838L502.203 20.0469ZM511.015 28.6123V30H506.694V28.6123H511.015ZM507.132 20.0469V30H505.471V20.0469H507.132ZM510.434 24.1895V25.5566H506.694V24.1895H510.434ZM510.974 20.0469V21.4414H506.694V20.0469H510.974ZM519.136 20.0469V30H517.509L513.995 23.1094V30H512.389V20.0469H513.995L517.536 26.9854V20.0469H519.136ZM524.427 20.0469V30H522.772V20.0469H524.427ZM526.963 20.0469V21.4414H520.264V20.0469H526.963ZM532.445 27.4297C532.445 27.2246 532.423 27.0423 532.377 26.8828C532.336 26.7188 532.256 26.5706 532.138 26.4385C532.019 26.3063 531.851 26.1764 531.632 26.0488C531.418 25.9212 531.14 25.7913 530.798 25.6592C530.406 25.5088 530.039 25.3447 529.697 25.167C529.36 24.9847 529.062 24.7796 528.802 24.5518C528.547 24.3193 528.346 24.0482 528.2 23.7383C528.054 23.4284 527.981 23.0684 527.981 22.6582C527.981 22.2526 528.052 21.8835 528.193 21.5508C528.339 21.2135 528.544 20.9242 528.809 20.6826C529.077 20.4365 529.396 20.2474 529.766 20.1152C530.135 19.9785 530.543 19.9102 530.989 19.9102C531.632 19.9102 532.181 20.0469 532.637 20.3203C533.097 20.5938 533.448 20.9606 533.689 21.4209C533.936 21.8812 534.059 22.3916 534.059 22.9521H532.404C532.404 22.6286 532.354 22.3415 532.254 22.0908C532.154 21.8402 531.999 21.6442 531.789 21.5029C531.579 21.3617 531.308 21.291 530.976 21.291C530.67 21.291 530.417 21.3503 530.217 21.4688C530.021 21.5872 529.875 21.749 529.779 21.9541C529.688 22.1592 529.643 22.3939 529.643 22.6582C529.643 22.8405 529.681 23.0068 529.759 23.1572C529.836 23.3031 529.948 23.4375 530.094 23.5605C530.24 23.6836 530.417 23.7998 530.627 23.9092C530.837 24.0186 531.078 24.1234 531.352 24.2236C531.816 24.3923 532.222 24.5791 532.568 24.7842C532.915 24.9893 533.2 25.2194 533.423 25.4746C533.651 25.7253 533.819 26.0101 533.929 26.3291C534.043 26.6481 534.1 27.0104 534.1 27.416C534.1 27.8262 534.029 28.1999 533.888 28.5371C533.751 28.8698 533.55 29.1546 533.286 29.3916C533.022 29.6286 532.703 29.8132 532.329 29.9453C531.955 30.0729 531.536 30.1367 531.071 30.1367C530.643 30.1367 530.23 30.0729 529.834 29.9453C529.442 29.8177 529.091 29.624 528.781 29.3643C528.471 29.0999 528.225 28.7695 528.043 28.373C527.865 27.9766 527.776 27.5117 527.776 26.9785H529.438C529.438 27.2975 529.476 27.571 529.554 27.7988C529.631 28.0221 529.743 28.2067 529.889 28.3525C530.039 28.4938 530.215 28.5986 530.415 28.667C530.62 28.7308 530.848 28.7627 531.099 28.7627C531.409 28.7627 531.661 28.708 531.857 28.5986C532.058 28.4847 532.206 28.3275 532.302 28.127C532.397 27.9264 532.445 27.694 532.445 27.4297ZM544.176 28.6123V30H540.04V28.6123H544.176ZM540.478 20.0469V30H538.816V20.0469H540.478ZM547.478 20.0469V30H545.823V20.0469H547.478ZM550.014 20.0469V21.4414H543.314V20.0469H550.014ZM553.767 30H552.037L552.051 28.6123H553.767C554.3 28.6123 554.726 28.5143 555.045 28.3184C555.364 28.1178 555.594 27.8125 555.735 27.4023C555.877 26.9922 555.947 26.4681 555.947 25.8301V24.21C555.947 23.7178 555.906 23.2985 555.824 22.9521C555.747 22.6012 555.624 22.3164 555.455 22.0977C555.291 21.8743 555.075 21.7103 554.806 21.6055C554.537 21.4961 554.213 21.4414 553.835 21.4414H552.003V20.0469H553.835C554.405 20.0469 554.92 20.138 555.38 20.3203C555.84 20.5026 556.234 20.7715 556.562 21.127C556.895 21.4779 557.15 21.9131 557.328 22.4326C557.506 22.9521 557.595 23.5492 557.595 24.2236V25.8301C557.595 26.5046 557.506 27.1016 557.328 27.6211C557.15 28.1361 556.895 28.5713 556.562 28.9268C556.23 29.2777 555.829 29.5443 555.359 29.7266C554.89 29.9089 554.359 30 553.767 30ZM552.987 20.0469V30H551.326V20.0469H552.987ZM559.98 28.4004L559.974 29.5967C559.974 30.0661 559.857 30.5469 559.625 31.0391C559.393 31.5358 559.083 31.946 558.695 32.2695L557.813 31.75C557.941 31.5449 558.057 31.3353 558.162 31.1211C558.267 30.9115 558.351 30.6859 558.415 30.4443C558.479 30.2074 558.511 29.9453 558.511 29.6582V28.4004H559.98ZM568.293 21.4141L565.887 30H564.15L567.309 20.0469H568.389L568.293 21.4141ZM570.214 30L567.801 21.4141L567.685 20.0469H568.785L571.957 30H570.214ZM570.255 26.3018V27.6963H565.62V26.3018H570.255ZM578.451 28.6123V30H574.315V28.6123H578.451ZM574.753 20.0469V30H573.092V20.0469H574.753ZM585.137 28.6123V30H581.001V28.6123H585.137ZM581.438 20.0469V30H579.777V20.0469H581.438ZM589.696 20.0469H592.704C593.36 20.0469 593.916 20.1608 594.372 20.3887C594.828 20.6165 595.174 20.9538 595.411 21.4004C595.653 21.8424 595.773 22.3916 595.773 23.0479C595.773 23.5446 595.698 23.9821 595.548 24.3604C595.402 24.7386 595.19 25.0576 594.912 25.3174C594.634 25.5726 594.299 25.7708 593.907 25.9121L593.422 26.1787H590.879L590.872 24.7842H592.663C592.987 24.7842 593.256 24.7135 593.47 24.5723C593.684 24.431 593.843 24.235 593.948 23.9844C594.058 23.7337 594.112 23.4489 594.112 23.1299C594.112 22.7881 594.064 22.4919 593.969 22.2412C593.873 21.986 593.723 21.79 593.518 21.6533C593.312 21.512 593.041 21.4414 592.704 21.4414H591.357V30H589.696V20.0469ZM594.331 30L592.438 25.5293L594.167 25.5225L596.108 29.9111V30H594.331ZM599.021 20.0469V30H597.359V20.0469H599.021ZM607.456 24.8936V28.8174C607.333 28.9678 607.146 29.1478 606.896 29.3574C606.649 29.5625 606.317 29.7448 605.897 29.9043C605.483 30.0592 604.959 30.1367 604.325 30.1367C603.792 30.1367 603.304 30.0501 602.862 29.877C602.425 29.7038 602.049 29.4417 601.734 29.0908C601.42 28.7399 601.178 28.3024 601.01 27.7783C600.841 27.2497 600.757 26.6253 600.757 25.9053V24.1348C600.757 23.4238 600.832 22.804 600.982 22.2754C601.137 21.7467 601.363 21.307 601.659 20.9561C601.955 20.6006 602.315 20.3385 602.739 20.1699C603.163 19.9967 603.651 19.9102 604.202 19.9102C604.899 19.9102 605.48 20.0332 605.945 20.2793C606.415 20.5208 606.772 20.8809 607.019 21.3594C607.269 21.8333 607.415 22.4121 607.456 23.0957H605.836C605.799 22.6764 605.72 22.3369 605.597 22.0771C605.478 21.8128 605.307 21.6169 605.084 21.4893C604.861 21.3617 604.574 21.2979 604.223 21.2979C603.904 21.2979 603.63 21.3525 603.402 21.4619C603.174 21.5713 602.988 21.7422 602.842 21.9746C602.696 22.2025 602.589 22.4941 602.521 22.8496C602.452 23.2051 602.418 23.6289 602.418 24.1211V25.9053C602.418 26.4066 602.461 26.8372 602.548 27.1973C602.634 27.5573 602.76 27.8535 602.924 28.0859C603.092 28.3138 603.3 28.4824 603.546 28.5918C603.792 28.6966 604.072 28.749 604.387 28.749C604.697 28.749 604.943 28.7171 605.125 28.6533C605.307 28.5895 605.449 28.5189 605.549 28.4414C605.654 28.3594 605.738 28.2956 605.802 28.25V26.1992H604.195V24.8936H607.456ZM614.634 24.1895V25.584H610.443V24.1895H614.634ZM610.833 20.0469V30H609.172V20.0469H610.833ZM615.933 20.0469V30H614.278V20.0469H615.933ZM621.224 20.0469V30H619.569V20.0469H621.224ZM623.76 20.0469V21.4414H617.061V20.0469H623.76ZM629.242 27.4297C629.242 27.2246 629.219 27.0423 629.174 26.8828C629.133 26.7188 629.053 26.5706 628.935 26.4385C628.816 26.3063 628.647 26.1764 628.429 26.0488C628.215 25.9212 627.937 25.7913 627.595 25.6592C627.203 25.5088 626.836 25.3447 626.494 25.167C626.157 24.9847 625.858 24.7796 625.599 24.5518C625.343 24.3193 625.143 24.0482 624.997 23.7383C624.851 23.4284 624.778 23.0684 624.778 22.6582C624.778 22.2526 624.849 21.8835 624.99 21.5508C625.136 21.2135 625.341 20.9242 625.605 20.6826C625.874 20.4365 626.193 20.2474 626.562 20.1152C626.932 19.9785 627.34 19.9102 627.786 19.9102C628.429 19.9102 628.978 20.0469 629.434 20.3203C629.894 20.5938 630.245 20.9606 630.486 21.4209C630.732 21.8812 630.855 22.3916 630.855 22.9521H629.201C629.201 22.6286 629.151 22.3415 629.051 22.0908C628.951 21.8402 628.796 21.6442 628.586 21.5029C628.376 21.3617 628.105 21.291 627.772 21.291C627.467 21.291 627.214 21.3503 627.014 21.4688C626.818 21.5872 626.672 21.749 626.576 21.9541C626.485 22.1592 626.439 22.3939 626.439 22.6582C626.439 22.8405 626.478 23.0068 626.556 23.1572C626.633 23.3031 626.745 23.4375 626.891 23.5605C627.036 23.6836 627.214 23.7998 627.424 23.9092C627.633 24.0186 627.875 24.1234 628.148 24.2236C628.613 24.3923 629.019 24.5791 629.365 24.7842C629.712 24.9893 629.996 25.2194 630.22 25.4746C630.448 25.7253 630.616 26.0101 630.726 26.3291C630.84 26.6481 630.896 27.0104 630.896 27.416C630.896 27.8262 630.826 28.1999 630.685 28.5371C630.548 28.8698 630.347 29.1546 630.083 29.3916C629.819 29.6286 629.5 29.8132 629.126 29.9453C628.752 30.0729 628.333 30.1367 627.868 30.1367C627.44 30.1367 627.027 30.0729 626.631 29.9453C626.239 29.8177 625.888 29.624 625.578 29.3643C625.268 29.0999 625.022 28.7695 624.84 28.373C624.662 27.9766 624.573 27.5117 624.573 26.9785H626.234C626.234 27.2975 626.273 27.571 626.351 27.7988C626.428 28.0221 626.54 28.2067 626.686 28.3525C626.836 28.4938 627.011 28.5986 627.212 28.667C627.417 28.7308 627.645 28.7627 627.896 28.7627C628.205 28.7627 628.458 28.708 628.654 28.5986C628.855 28.4847 629.003 28.3275 629.099 28.127C629.194 27.9264 629.242 27.694 629.242 27.4297ZM635.62 20.0469H638.628C639.284 20.0469 639.84 20.1608 640.296 20.3887C640.752 20.6165 641.098 20.9538 641.335 21.4004C641.576 21.8424 641.697 22.3916 641.697 23.0479C641.697 23.5446 641.622 23.9821 641.472 24.3604C641.326 24.7386 641.114 25.0576 640.836 25.3174C640.558 25.5726 640.223 25.7708 639.831 25.9121L639.346 26.1787H636.803L636.796 24.7842H638.587C638.91 24.7842 639.179 24.7135 639.394 24.5723C639.608 24.431 639.767 24.235 639.872 23.9844C639.981 23.7337 640.036 23.4489 640.036 23.1299C640.036 22.7881 639.988 22.4919 639.893 22.2412C639.797 21.986 639.646 21.79 639.441 21.6533C639.236 21.512 638.965 21.4414 638.628 21.4414H637.281V30H635.62V20.0469ZM640.255 30L638.361 25.5293L640.091 25.5225L642.032 29.9111V30H640.255ZM648.759 28.6123V30H644.438V28.6123H648.759ZM644.876 20.0469V30H643.215V20.0469H644.876ZM648.178 24.1895V25.5566H644.438V24.1895H648.178ZM648.718 20.0469V21.4414H644.438V20.0469H648.718ZM654.412 27.4297C654.412 27.2246 654.389 27.0423 654.344 26.8828C654.303 26.7188 654.223 26.5706 654.104 26.4385C653.986 26.3063 653.817 26.1764 653.599 26.0488C653.384 25.9212 653.106 25.7913 652.765 25.6592C652.373 25.5088 652.006 25.3447 651.664 25.167C651.327 24.9847 651.028 24.7796 650.769 24.5518C650.513 24.3193 650.313 24.0482 650.167 23.7383C650.021 23.4284 649.948 23.0684 649.948 22.6582C649.948 22.2526 650.019 21.8835 650.16 21.5508C650.306 21.2135 650.511 20.9242 650.775 20.6826C651.044 20.4365 651.363 20.2474 651.732 20.1152C652.102 19.9785 652.509 19.9102 652.956 19.9102C653.599 19.9102 654.148 20.0469 654.604 20.3203C655.064 20.5938 655.415 20.9606 655.656 21.4209C655.902 21.8812 656.025 22.3916 656.025 22.9521H654.371C654.371 22.6286 654.321 22.3415 654.221 22.0908C654.12 21.8402 653.965 21.6442 653.756 21.5029C653.546 21.3617 653.275 21.291 652.942 21.291C652.637 21.291 652.384 21.3503 652.184 21.4688C651.988 21.5872 651.842 21.749 651.746 21.9541C651.655 22.1592 651.609 22.3939 651.609 22.6582C651.609 22.8405 651.648 23.0068 651.726 23.1572C651.803 23.3031 651.915 23.4375 652.061 23.5605C652.206 23.6836 652.384 23.7998 652.594 23.9092C652.803 24.0186 653.045 24.1234 653.318 24.2236C653.783 24.3923 654.189 24.5791 654.535 24.7842C654.882 24.9893 655.166 25.2194 655.39 25.4746C655.618 25.7253 655.786 26.0101 655.896 26.3291C656.009 26.6481 656.066 27.0104 656.066 27.416C656.066 27.8262 655.996 28.1999 655.854 28.5371C655.718 28.8698 655.517 29.1546 655.253 29.3916C654.989 29.6286 654.67 29.8132 654.296 29.9453C653.922 30.0729 653.503 30.1367 653.038 30.1367C652.61 30.1367 652.197 30.0729 651.801 29.9453C651.409 29.8177 651.058 29.624 650.748 29.3643C650.438 29.0999 650.192 28.7695 650.01 28.373C649.832 27.9766 649.743 27.5117 649.743 26.9785H651.404C651.404 27.2975 651.443 27.571 651.521 27.7988C651.598 28.0221 651.71 28.2067 651.855 28.3525C652.006 28.4938 652.181 28.5986 652.382 28.667C652.587 28.7308 652.815 28.7627 653.065 28.7627C653.375 28.7627 653.628 28.708 653.824 28.5986C654.025 28.4847 654.173 28.3275 654.269 28.127C654.364 27.9264 654.412 27.694 654.412 27.4297ZM663.101 28.6123V30H658.78V28.6123H663.101ZM659.218 20.0469V30H657.557V20.0469H659.218ZM662.52 24.1895V25.5566H658.78V24.1895H662.52ZM663.06 20.0469V21.4414H658.78V20.0469H663.06ZM664.481 20.0469H667.489C668.146 20.0469 668.701 20.1608 669.157 20.3887C669.613 20.6165 669.959 20.9538 670.196 21.4004C670.438 21.8424 670.559 22.3916 670.559 23.0479C670.559 23.5446 670.483 23.9821 670.333 24.3604C670.187 24.7386 669.975 25.0576 669.697 25.3174C669.419 25.5726 669.084 25.7708 668.692 25.9121L668.207 26.1787H665.664L665.657 24.7842H667.448C667.772 24.7842 668.041 24.7135 668.255 24.5723C668.469 24.431 668.629 24.235 668.733 23.9844C668.843 23.7337 668.897 23.4489 668.897 23.1299C668.897 22.7881 668.85 22.4919 668.754 22.2412C668.658 21.986 668.508 21.79 668.303 21.6533C668.098 21.512 667.826 21.4414 667.489 21.4414H666.143V30H664.481V20.0469ZM669.116 30L667.223 25.5293L668.952 25.5225L670.894 29.9111V30H669.116ZM674.865 28.1543L676.984 20.0469H678.782L675.809 30H674.578L674.865 28.1543ZM673.013 20.0469L675.118 28.1543L675.426 30H674.195L671.222 20.0469H673.013ZM685.468 28.6123V30H681.147V28.6123H685.468ZM681.585 20.0469V30H679.924V20.0469H681.585ZM684.887 24.1895V25.5566H681.147V24.1895H684.887ZM685.427 20.0469V21.4414H681.147V20.0469H685.427ZM689.282 30H687.553L687.566 28.6123H689.282C689.815 28.6123 690.242 28.5143 690.561 28.3184C690.88 28.1178 691.11 27.8125 691.251 27.4023C691.392 26.9922 691.463 26.4681 691.463 25.8301V24.21C691.463 23.7178 691.422 23.2985 691.34 22.9521C691.262 22.6012 691.139 22.3164 690.971 22.0977C690.807 21.8743 690.59 21.7103 690.321 21.6055C690.052 21.4961 689.729 21.4414 689.351 21.4414H687.519V20.0469H689.351C689.92 20.0469 690.435 20.138 690.896 20.3203C691.356 20.5026 691.75 20.7715 692.078 21.127C692.411 21.4779 692.666 21.9131 692.844 22.4326C693.021 22.9521 693.11 23.5492 693.11 24.2236V25.8301C693.11 26.5046 693.021 27.1016 692.844 27.6211C692.666 28.1361 692.411 28.5713 692.078 28.9268C691.745 29.2777 691.344 29.5443 690.875 29.7266C690.406 29.9089 689.875 30 689.282 30ZM688.503 20.0469V30H686.842V20.0469H688.503ZM694.026 29.166C694.026 28.9017 694.111 28.6807 694.279 28.5029C694.452 28.3252 694.689 28.2363 694.99 28.2363C695.291 28.2363 695.526 28.3252 695.694 28.5029C695.868 28.6807 695.954 28.9017 695.954 29.166C695.954 29.4212 695.868 29.6377 695.694 29.8154C695.526 29.9932 695.291 30.082 694.99 30.082C694.689 30.082 694.452 29.9932 694.279 29.8154C694.111 29.6377 694.026 29.4212 694.026 29.166Z" fill="#3F3F3F"/>
<defs>
<linearGradient id="paint0_linear_55_847" x1="-10" y1="1.17188" x2="737.5" y2="1.17188" gradientUnits="userSpaceOnUse">
<stop stop-color="#E1C75C"/>
<stop offset="1" stop-color="#C2A013"/>
</linearGradient>
</defs>
</svg>
