<svg width="16" height="15" viewBox="0 0 16 15" fill="none" xmlns="http://www.w3.org/2000/svg">
<path d="M15.3216 5.28192L10.5751 4.59758L8.45323 0.330127C8.39528 0.213287 8.29994 0.118702 8.18216 0.0612089C7.88679 -0.0834504 7.52786 0.037099 7.38017 0.330127L5.25835 4.59758L0.511825 5.28192C0.380964 5.30047 0.261319 5.36167 0.169716 5.4544C0.0589737 5.56732 -0.00205061 5.71924 5.26173e-05 5.87677C0.00215585 6.03431 0.0672145 6.18457 0.180933 6.29454L3.61511 9.61614L2.80377 14.3064C2.78474 14.4155 2.79691 14.5278 2.8389 14.6304C2.88088 14.7329 2.95101 14.8218 3.04131 14.8869C3.13162 14.952 3.2385 14.9906 3.34983 14.9985C3.46116 15.0064 3.57249 14.9831 3.67119 14.9314L7.9167 12.717L12.1622 14.9314C12.2781 14.9926 12.4127 15.013 12.5417 14.9908C12.867 14.9351 13.0857 14.6291 13.0296 14.3064L12.2183 9.61614L15.6525 6.29454C15.7459 6.20366 15.8076 6.08497 15.8263 5.95515C15.8768 5.63059 15.6487 5.33014 15.3216 5.28192Z" fill="#CEAF2E"/>
</svg>
