<svg width="120" height="20" viewBox="0 0 120 20" fill="none" xmlns="http://www.w3.org/2000/svg">
<path d="M19.3536 7.04257L13.358 6.1301L10.6778 0.440169C10.6046 0.284382 10.4841 0.158269 10.3354 0.0816118C9.96227 -0.111267 9.50887 0.0494654 9.32232 0.440169L6.64213 6.1301L0.646516 7.04257C0.481218 7.0673 0.330088 7.1489 0.214379 7.27254C0.0744931 7.4231 -0.00259025 7.62566 6.6464e-05 7.8357C0.00272317 8.04575 0.0849026 8.24609 0.228547 8.39272L4.56645 12.8215L3.5416 19.0753C3.51757 19.2207 3.53294 19.3703 3.58598 19.5071C3.63901 19.6439 3.72759 19.7624 3.84166 19.8492C3.95573 19.9359 4.09074 19.9875 4.23137 19.998C4.37199 20.0085 4.51262 19.9775 4.63729 19.9086L10 16.9561L15.3628 19.9086C15.5092 19.9902 15.6792 20.0174 15.8422 19.9877C16.2531 19.9135 16.5293 19.5055 16.4585 19.0753L15.4336 12.8215L19.7715 8.39272C19.8896 8.27156 19.9675 8.1133 19.9912 7.9402C20.0549 7.50746 19.7668 7.10686 19.3536 7.04257Z" fill="#E8C229"/>
<path d="M44.3536 7.04257L38.358 6.1301L35.6778 0.440169C35.6046 0.284382 35.4841 0.158269 35.3354 0.0816118C34.9623 -0.111267 34.5089 0.0494654 34.3223 0.440169L31.6421 6.1301L25.6465 7.04257C25.4812 7.0673 25.3301 7.1489 25.2144 7.27254C25.0745 7.4231 24.9974 7.62566 25.0001 7.8357C25.0027 8.04575 25.0849 8.24609 25.2285 8.39272L29.5665 12.8215L28.5416 19.0753C28.5176 19.2207 28.5329 19.3703 28.586 19.5071C28.639 19.6439 28.7276 19.7624 28.8417 19.8492C28.9557 19.9359 29.0907 19.9875 29.2314 19.998C29.372 20.0085 29.5126 19.9775 29.6373 19.9086L35 16.9561L40.3628 19.9086C40.5092 19.9902 40.6792 20.0174 40.8422 19.9877C41.2531 19.9135 41.5293 19.5055 41.4585 19.0753L40.4336 12.8215L44.7715 8.39272C44.8896 8.27156 44.9675 8.1133 44.9912 7.9402C45.0549 7.50746 44.7668 7.10686 44.3536 7.04257Z" fill="#E8C229"/>
<path d="M69.3536 7.04257L63.358 6.1301L60.6778 0.440169C60.6046 0.284382 60.4841 0.158269 60.3354 0.0816118C59.9623 -0.111267 59.5089 0.0494654 59.3223 0.440169L56.6421 6.1301L50.6465 7.04257C50.4812 7.0673 50.3301 7.1489 50.2144 7.27254C50.0745 7.4231 49.9974 7.62566 50.0001 7.8357C50.0027 8.04575 50.0849 8.24609 50.2285 8.39272L54.5665 12.8215L53.5416 19.0753C53.5176 19.2207 53.5329 19.3703 53.586 19.5071C53.639 19.6439 53.7276 19.7624 53.8417 19.8492C53.9557 19.9359 54.0907 19.9875 54.2314 19.998C54.372 20.0085 54.5126 19.9775 54.6373 19.9086L60 16.9561L65.3628 19.9086C65.5092 19.9902 65.6792 20.0174 65.8422 19.9877C66.2531 19.9135 66.5293 19.5055 66.4585 19.0753L65.4336 12.8215L69.7715 8.39272C69.8896 8.27156 69.9675 8.1133 69.9912 7.9402C70.0549 7.50746 69.7668 7.10686 69.3536 7.04257Z" fill="#E8C229"/>
<path d="M94.3536 7.04257L88.358 6.1301L85.6778 0.440169C85.6046 0.284382 85.4841 0.158269 85.3354 0.0816118C84.9623 -0.111267 84.5089 0.0494654 84.3223 0.440169L81.6421 6.1301L75.6465 7.04257C75.4812 7.0673 75.3301 7.1489 75.2144 7.27254C75.0745 7.4231 74.9974 7.62566 75.0001 7.8357C75.0027 8.04575 75.0849 8.24609 75.2285 8.39272L79.5665 12.8215L78.5416 19.0753C78.5176 19.2207 78.5329 19.3703 78.586 19.5071C78.639 19.6439 78.7276 19.7624 78.8417 19.8492C78.9557 19.9359 79.0907 19.9875 79.2314 19.998C79.372 20.0085 79.5126 19.9775 79.6373 19.9086L85 16.9561L90.3628 19.9086C90.5092 19.9902 90.6792 20.0174 90.8422 19.9877C91.2531 19.9135 91.5293 19.5055 91.4585 19.0753L90.4336 12.8215L94.7715 8.39272C94.8896 8.27156 94.9675 8.1133 94.9912 7.9402C95.0549 7.50746 94.7668 7.10686 94.3536 7.04257Z" fill="#E8C229"/>
<path d="M119.354 7.04257L113.358 6.1301L110.678 0.440169C110.605 0.284382 110.484 0.158269 110.335 0.0816118C109.962 -0.111267 109.509 0.0494654 109.322 0.440169L106.642 6.1301L100.647 7.04257C100.481 7.0673 100.33 7.1489 100.214 7.27254C100.074 7.4231 99.9974 7.62566 100 7.8357C100.003 8.04575 100.085 8.24609 100.229 8.39272L104.566 12.8215L103.542 19.0753C103.518 19.2207 103.533 19.3703 103.586 19.5071C103.639 19.6439 103.728 19.7624 103.842 19.8492C103.956 19.9359 104.091 19.9875 104.231 19.998C104.372 20.0085 104.513 19.9775 104.637 19.9086L110 16.9561L115.363 19.9086C115.509 19.9902 115.679 20.0174 115.842 19.9877C116.253 19.9135 116.529 19.5055 116.458 19.0753L115.434 12.8215L119.772 8.39272C119.89 8.27156 119.968 8.1133 119.991 7.9402C120.055 7.50746 119.767 7.10686 119.354 7.04257Z" fill="#E8C229"/>
</svg>
