<svg width="95" height="15" viewBox="0 0 95 15" fill="none" xmlns="http://www.w3.org/2000/svg">
<path d="M15.3216 5.28192L10.5751 4.59758L8.45323 0.330127C8.39528 0.213287 8.29994 0.118702 8.18216 0.0612089C7.88679 -0.0834504 7.52786 0.037099 7.38017 0.330127L5.25835 4.59758L0.511825 5.28192C0.380964 5.30047 0.261319 5.36167 0.169716 5.4544C0.0589737 5.56732 -0.00205061 5.71924 5.26173e-05 5.87677C0.00215585 6.03431 0.0672145 6.18457 0.180933 6.29454L3.61511 9.61614L2.80377 14.3064C2.78474 14.4155 2.79691 14.5278 2.8389 14.6304C2.88088 14.7329 2.95101 14.8218 3.04131 14.8869C3.13162 14.952 3.2385 14.9906 3.34983 14.9985C3.46116 15.0064 3.57249 14.9831 3.67119 14.9314L7.9167 12.717L12.1622 14.9314C12.2781 14.9926 12.4127 15.013 12.5417 14.9908C12.867 14.9351 13.0857 14.6291 13.0296 14.3064L12.2183 9.61614L15.6525 6.29454C15.7459 6.20366 15.8076 6.08497 15.8263 5.95515C15.8768 5.63059 15.6487 5.33014 15.3216 5.28192V5.28192Z" fill="#CEAF2E"/>
<path d="M35.1134 5.28192L30.3669 4.59758L28.2451 0.330127C28.1872 0.213287 28.0918 0.118702 27.974 0.0612089C27.6787 -0.0834504 27.3197 0.037099 27.172 0.330127L25.0502 4.59758L20.3037 5.28192C20.1728 5.30047 20.0532 5.36167 19.9616 5.4544C19.8508 5.56732 19.7898 5.71924 19.7919 5.87677C19.794 6.03431 19.8591 6.18457 19.9728 6.29454L23.407 9.61614L22.5956 14.3064C22.5766 14.4155 22.5888 14.5278 22.6308 14.6304C22.6728 14.7329 22.7429 14.8218 22.8332 14.8869C22.9235 14.952 23.0304 14.9906 23.1417 14.9985C23.253 15.0064 23.3644 14.9831 23.4631 14.9314L27.7086 12.717L31.9541 14.9314C32.07 14.9926 32.2046 15.013 32.3336 14.9908C32.6589 14.9351 32.8776 14.6291 32.8215 14.3064L32.0102 9.61614L35.4443 6.29454C35.5378 6.20366 35.5995 6.08497 35.6182 5.95515C35.6687 5.63059 35.4406 5.33014 35.1134 5.28192Z" fill="#CEAF2E"/>
<path d="M54.9047 5.28192L50.1582 4.59758L48.0364 0.330127C47.9784 0.213287 47.8831 0.118702 47.7653 0.0612089C47.4699 -0.0834504 47.111 0.037099 46.9633 0.330127L44.8415 4.59758L40.095 5.28192C39.9641 5.30047 39.8444 5.36167 39.7528 5.4544C39.6421 5.56732 39.5811 5.71924 39.5832 5.87677C39.5853 6.03431 39.6503 6.18457 39.7641 6.29454L43.1982 9.61614L42.3869 14.3064C42.3679 14.4155 42.38 14.5278 42.422 14.6304C42.464 14.7329 42.5341 14.8218 42.6244 14.8869C42.7148 14.952 42.8216 14.9906 42.933 14.9985C43.0443 15.0064 43.1556 14.9831 43.2543 14.9314L47.4998 12.717L51.7453 14.9314C51.8612 14.9926 51.9959 15.013 52.1248 14.9908C52.4501 14.9351 52.6689 14.6291 52.6128 14.3064L51.8014 9.61614L55.2356 6.29454C55.3291 6.20366 55.3908 6.08497 55.4095 5.95515C55.4599 5.63059 55.2319 5.33014 54.9047 5.28192Z" fill="#CEAF2E"/>
<path d="M74.6966 5.28192L69.9501 4.59758L67.8282 0.330127C67.7703 0.213287 67.6749 0.118702 67.5572 0.0612089C67.2618 -0.0834504 66.9029 0.037099 66.7552 0.330127L64.6333 4.59758L59.8868 5.28192C59.756 5.30047 59.6363 5.36167 59.5447 5.4544C59.434 5.56732 59.3729 5.71924 59.3751 5.87677C59.3772 6.03431 59.4422 6.18457 59.5559 6.29454L62.9901 9.61614L62.1788 14.3064C62.1597 14.4155 62.1719 14.5278 62.2139 14.6304C62.2559 14.7329 62.326 14.8218 62.4163 14.8869C62.5066 14.952 62.6135 14.9906 62.7248 14.9985C62.8362 15.0064 62.9475 14.9831 63.0462 14.9314L67.2917 12.717L71.5372 14.9314C71.6531 14.9926 71.7877 15.013 71.9167 14.9908C72.242 14.9351 72.4607 14.6291 72.4046 14.3064L71.5933 9.61614L75.0275 6.29454C75.1209 6.20366 75.1826 6.08497 75.2013 5.95515C75.2518 5.63059 75.0237 5.33014 74.6966 5.28192Z" fill="#CEAF2E"/>
<path d="M94.4884 5.28192L89.7419 4.59758L87.6201 0.330127C87.5622 0.213287 87.4668 0.118702 87.349 0.0612089C87.0537 -0.0834504 86.6947 0.037099 86.547 0.330127L84.4252 4.59758L79.6787 5.28192C79.5478 5.30047 79.4282 5.36167 79.3366 5.4544C79.2258 5.56732 79.1648 5.71924 79.1669 5.87677C79.169 6.03431 79.2341 6.18457 79.3478 6.29454L82.782 9.61614L81.9706 14.3064C81.9516 14.4155 81.9638 14.5278 82.0058 14.6304C82.0478 14.7329 82.1179 14.8218 82.2082 14.8869C82.2985 14.952 82.4054 14.9906 82.5167 14.9985C82.628 15.0064 82.7394 14.9831 82.8381 14.9314L87.0836 12.717L91.3291 14.9314C91.445 14.9926 91.5796 15.013 91.7086 14.9908C92.0339 14.9351 92.2526 14.6291 92.1965 14.3064L91.3852 9.61614L94.8193 6.29454C94.9128 6.20366 94.9745 6.08497 94.9932 5.95515C95.0437 5.63059 94.8156 5.33014 94.4884 5.28192V5.28192Z" fill="#CEAF2E"/>
<mask id="mask0_269_2544" style="mask-type:alpha" maskUnits="userSpaceOnUse" x="87" y="0" width="8" height="15">
<rect x="87.0831" width="7.91667" height="15" fill="#D9D9D9"/>
</mask>
<g mask="url(#mask0_269_2544)">
<path d="M94.4884 5.28192L89.7419 4.59758L87.6201 0.330127C87.5622 0.213287 87.4668 0.118702 87.349 0.0612089C87.0537 -0.0834504 86.6947 0.037099 86.547 0.330127L84.4252 4.59758L79.6787 5.28192C79.5478 5.30047 79.4282 5.36167 79.3366 5.4544C79.2258 5.56732 79.1648 5.71924 79.1669 5.87677C79.169 6.03431 79.2341 6.18457 79.3478 6.29454L82.782 9.61614L81.9706 14.3064C81.9516 14.4155 81.9638 14.5278 82.0058 14.6304C82.0478 14.7329 82.1179 14.8218 82.2082 14.8869C82.2985 14.952 82.4054 14.9906 82.5167 14.9985C82.628 15.0064 82.7394 14.9831 82.8381 14.9314L87.0836 12.717L91.3291 14.9314C91.445 14.9926 91.5796 15.013 91.7086 14.9908C92.0339 14.9351 92.2526 14.6291 92.1965 14.3064L91.3852 9.61614L94.8193 6.29454C94.9128 6.20366 94.9745 6.08497 94.9932 5.95515C95.0437 5.63059 94.8156 5.33014 94.4884 5.28192V5.28192Z" fill="white"/>
</g>
</svg>
