<svg width="16" height="15" viewBox="0 0 16 15" fill="none" xmlns="http://www.w3.org/2000/svg">
<path d="M15.4884 5.28192L10.7419 4.59758L8.6201 0.330127C8.56215 0.213287 8.46681 0.118702 8.34903 0.0612089C8.05366 -0.0834504 7.69473 0.037099 7.54704 0.330127L5.42522 4.59758L0.678695 5.28192C0.547834 5.30047 0.428189 5.36167 0.336587 5.4544C0.225844 5.56732 0.16482 5.71924 0.166923 5.87677C0.169026 6.03431 0.234085 6.18457 0.347803 6.29454L3.78198 9.61614L2.97064 14.3064C2.95161 14.4155 2.96378 14.5278 3.00577 14.6304C3.04775 14.7329 3.11788 14.8218 3.20818 14.8869C3.29849 14.952 3.40537 14.9906 3.5167 14.9985C3.62803 15.0064 3.73936 14.9831 3.83806 14.9314L8.08357 12.717L12.3291 14.9314C12.445 14.9926 12.5796 15.013 12.7086 14.9908C13.0339 14.9351 13.2526 14.6291 13.1965 14.3064L12.3852 9.61614L15.8193 6.29454C15.9128 6.20366 15.9745 6.08497 15.9932 5.95515C16.0437 5.63059 15.8156 5.33014 15.4884 5.28192Z" fill="#CEAF2E"/>
<mask id="mask0_12_1333" style="mask-type:alpha" maskUnits="userSpaceOnUse" x="8" y="0" width="8" height="15">
<rect x="8.08313" width="7.91667" height="15" fill="#D9D9D9"/>
</mask>
<g mask="url(#mask0_12_1333)">
<path d="M15.4884 5.28192L10.7419 4.59758L8.6201 0.330127C8.56215 0.213287 8.46681 0.118702 8.34903 0.0612089C8.05366 -0.0834504 7.69473 0.037099 7.54704 0.330127L5.42522 4.59758L0.678695 5.28192C0.547834 5.30047 0.428189 5.36167 0.336587 5.4544C0.225844 5.56732 0.16482 5.71924 0.166923 5.87677C0.169026 6.03431 0.234085 6.18457 0.347803 6.29454L3.78198 9.61614L2.97064 14.3064C2.95161 14.4155 2.96378 14.5278 3.00577 14.6304C3.04775 14.7329 3.11788 14.8218 3.20818 14.8869C3.29849 14.952 3.40537 14.9906 3.5167 14.9985C3.62803 15.0064 3.73936 14.9831 3.83806 14.9314L8.08357 12.717L12.3291 14.9314C12.445 14.9926 12.5796 15.013 12.7086 14.9908C13.0339 14.9351 13.2526 14.6291 13.1965 14.3064L12.3852 9.61614L15.8193 6.29454C15.9128 6.20366 15.9745 6.08497 15.9932 5.95515C16.0437 5.63059 15.8156 5.33014 15.4884 5.28192Z" fill="white"/>
</g>
</svg>
