<svg width="25" height="25" viewBox="0 0 25 25" fill="none" xmlns="http://www.w3.org/2000/svg">
<path d="M12.5 0C15.8962 0 16.32 0.0124999 17.6525 0.0749999C18.9837 0.1375 19.89 0.34625 20.6875 0.65625C21.5125 0.97375 22.2075 1.40375 22.9025 2.0975C23.5381 2.72237 24.0299 3.47824 24.3438 4.3125C24.6525 5.10875 24.8625 6.01625 24.925 7.3475C24.9838 8.68 25 9.10375 25 12.5C25 15.8962 24.9875 16.32 24.925 17.6525C24.8625 18.9837 24.6525 19.89 24.3438 20.6875C24.0308 21.5222 23.5389 22.2783 22.9025 22.9025C22.2775 23.5379 21.5216 24.0297 20.6875 24.3438C19.8912 24.6525 18.9837 24.8625 17.6525 24.925C16.32 24.9838 15.8962 25 12.5 25C9.10375 25 8.68 24.9875 7.3475 24.925C6.01625 24.8625 5.11 24.6525 4.3125 24.3438C3.47791 24.0306 2.72191 23.5387 2.0975 22.9025C1.46176 22.2777 0.969914 21.5218 0.65625 20.6875C0.34625 19.8912 0.1375 18.9837 0.0749999 17.6525C0.0162499 16.32 0 15.8962 0 12.5C0 9.10375 0.0124999 8.68 0.0749999 7.3475C0.1375 6.015 0.34625 5.11 0.65625 4.3125C0.969045 3.47772 1.461 2.72165 2.0975 2.0975C2.72209 1.46154 3.47804 0.969662 4.3125 0.65625C5.11 0.34625 6.015 0.1375 7.3475 0.0749999C8.68 0.0162499 9.10375 0 12.5 0ZM12.5 6.25C10.8424 6.25 9.25268 6.90848 8.08058 8.08058C6.90848 9.25268 6.25 10.8424 6.25 12.5C6.25 14.1576 6.90848 15.7473 8.08058 16.9194C9.25268 18.0915 10.8424 18.75 12.5 18.75C14.1576 18.75 15.7473 18.0915 16.9194 16.9194C18.0915 15.7473 18.75 14.1576 18.75 12.5C18.75 10.8424 18.0915 9.25268 16.9194 8.08058C15.7473 6.90848 14.1576 6.25 12.5 6.25ZM20.625 5.9375C20.625 5.5231 20.4604 5.12567 20.1674 4.83265C19.8743 4.53962 19.4769 4.375 19.0625 4.375C18.6481 4.375 18.2507 4.53962 17.9576 4.83265C17.6646 5.12567 17.5 5.5231 17.5 5.9375C17.5 6.3519 17.6646 6.74933 17.9576 7.04235C18.2507 7.33538 18.6481 7.5 19.0625 7.5C19.4769 7.5 19.8743 7.33538 20.1674 7.04235C20.4604 6.74933 20.625 6.3519 20.625 5.9375ZM12.5 8.75C13.4946 8.75 14.4484 9.14509 15.1517 9.84835C15.8549 10.5516 16.25 11.5054 16.25 12.5C16.25 13.4946 15.8549 14.4484 15.1517 15.1517C14.4484 15.8549 13.4946 16.25 12.5 16.25C11.5054 16.25 10.5516 15.8549 9.84835 15.1517C9.14509 14.4484 8.75 13.4946 8.75 12.5C8.75 11.5054 9.14509 10.5516 9.84835 9.84835C10.5516 9.14509 11.5054 8.75 12.5 8.75Z" fill="white"/>
</svg>
