<svg width="20" height="25" viewBox="0 0 20 25" fill="none" xmlns="http://www.w3.org/2000/svg">
<path d="M10 0C7.34876 0.00295406 4.80697 1.0387 2.93225 2.88C1.05754 4.72131 0.00300765 7.21781 0 9.82181C0 18.2262 9.09091 24.5768 9.47727 24.8447C9.63211 24.946 9.81398 25 10 25C10.186 25 10.3679 24.946 10.5227 24.8447C10.9091 24.5768 20 18.2262 20 9.82181C19.997 7.21781 18.9425 4.72131 17.0677 2.88C15.193 1.0387 12.6512 0.00295406 10 0ZM10 6.25024C10.7192 6.25024 11.4223 6.45971 12.0203 6.85216C12.6183 7.24461 13.0843 7.80241 13.3596 8.45503C13.6348 9.10765 13.7068 9.82577 13.5665 10.5186C13.4262 11.2114 13.0799 11.8478 12.5713 12.3473C12.0627 12.8468 11.4148 13.1869 10.7094 13.3248C10.004 13.4626 9.27288 13.3918 8.60843 13.1215C7.94397 12.8512 7.37604 12.3934 6.97647 11.8061C6.57691 11.2187 6.36364 10.5282 6.36364 9.82181C6.36364 8.87457 6.74675 7.96613 7.4287 7.29633C8.11065 6.62653 9.03558 6.25024 10 6.25024Z" fill="#E8C229"/>
</svg>
