<svg width="25" height="25" viewBox="0 0 25 25" fill="none" xmlns="http://www.w3.org/2000/svg">
<g clip-path="url(#clip0_94_2165)">
<path d="M23.9583 25H1.04167C0.466665 25 0 24.328 0 23.5C0 22.672 0.466665 22 1.04167 22H23.9583C24.5333 22 25 22.672 25 23.5C25 24.328 24.5333 25 23.9583 25Z" fill="white"/>
<path d="M23.9583 14H1.04167C0.466665 14 0 13.328 0 12.5C0 11.672 0.466665 11 1.04167 11H23.9583C24.5333 11 25 11.672 25 12.5C25 13.328 24.5333 14 23.9583 14Z" fill="white"/>
<path d="M23.9583 3H1.04167C0.466665 3 0 2.328 0 1.5C0 0.671997 0.466665 0 1.04167 0H23.9583C24.5333 0 25 0.671997 25 1.5C25 2.328 24.5333 3 23.9583 3Z" fill="white"/>
</g>
<defs>
<clipPath id="clip0_94_2165">
<rect width="25" height="25" fill="white"/>
</clipPath>
</defs>
</svg>
