<svg width="60" height="25" viewBox="0 0 60 25" fill="none" xmlns="http://www.w3.org/2000/svg">
<rect x="35" width="25" height="25" rx="5" fill="url(#paint0_linear_1_15929)"/>
<path d="M31.1236 13.6679C30.5705 13.2688 30.5705 12.4453 31.1236 12.0462L34.4148 9.67095C35.0762 9.19365 36 9.66623 36 10.4818L36 15.2323C36 16.0479 35.0762 16.5205 34.4148 16.0432L31.1236 13.6679Z" fill="#E8C229"/>
<path d="M50.6377 11.2305V12.748C50.6377 13.5638 50.5648 14.252 50.4189 14.8125C50.2731 15.373 50.0635 15.8242 49.79 16.166C49.5166 16.5078 49.1862 16.7562 48.7988 16.9111C48.416 17.0615 47.9831 17.1367 47.5 17.1367C47.1172 17.1367 46.764 17.0889 46.4404 16.9932C46.1169 16.8975 45.8252 16.7448 45.5654 16.5352C45.3102 16.321 45.0915 16.043 44.9092 15.7012C44.7269 15.3594 44.5879 14.9447 44.4922 14.457C44.3965 13.9694 44.3486 13.3997 44.3486 12.748V11.2305C44.3486 10.4147 44.4215 9.73112 44.5674 9.17969C44.7178 8.62826 44.9297 8.1862 45.2031 7.85352C45.4766 7.51628 45.8047 7.27474 46.1875 7.12891C46.5749 6.98307 47.0078 6.91016 47.4863 6.91016C47.8737 6.91016 48.2292 6.95801 48.5527 7.05371C48.8809 7.14486 49.1725 7.29297 49.4277 7.49805C49.6829 7.69857 49.8994 7.96745 50.0771 8.30469C50.2594 8.63737 50.3984 9.04525 50.4941 9.52832C50.5898 10.0114 50.6377 10.5788 50.6377 11.2305ZM49.3662 12.9531V11.0186C49.3662 10.5719 49.3389 10.18 49.2842 9.84277C49.234 9.50098 49.1589 9.20931 49.0586 8.96777C48.9583 8.72624 48.8307 8.53027 48.6758 8.37988C48.5254 8.22949 48.3499 8.12012 48.1494 8.05176C47.9535 7.97884 47.7324 7.94238 47.4863 7.94238C47.1855 7.94238 46.9189 7.99935 46.6865 8.11328C46.4541 8.22266 46.2581 8.39811 46.0986 8.63965C45.9437 8.88118 45.8252 9.19792 45.7432 9.58984C45.6611 9.98177 45.6201 10.458 45.6201 11.0186V12.9531C45.6201 13.3997 45.6452 13.7939 45.6953 14.1357C45.75 14.4775 45.8298 14.7738 45.9346 15.0244C46.0394 15.2705 46.167 15.4733 46.3174 15.6328C46.4678 15.7923 46.641 15.9108 46.8369 15.9883C47.0374 16.0612 47.2585 16.0977 47.5 16.0977C47.8099 16.0977 48.0811 16.0384 48.3135 15.9199C48.5459 15.8014 48.7396 15.6169 48.8945 15.3662C49.054 15.111 49.1725 14.7852 49.25 14.3887C49.3275 13.9876 49.3662 13.5091 49.3662 12.9531Z" fill="white"/>
<path d="M24.7812 5.68281C24.5958 5.45469 24.3174 5.32227 24.0234 5.32227H6.33477L6.26231 4.65664L6.25972 4.63525C5.91304 1.99277 3.64175 0 0.976563 0C0.437207 0 0 0.437207 0 0.976562C0 1.51592 0.437207 1.95312 0.976563 1.95312C2.66143 1.95312 4.0978 3.2104 4.32188 4.8793L5.48267 15.5434C4.46753 16.0042 3.75977 17.0274 3.75977 18.2129C3.75977 18.221 3.75986 18.2292 3.76006 18.2373C3.75986 18.2454 3.75977 18.2536 3.75977 18.2617C3.75977 19.8771 5.07402 21.1914 6.68945 21.1914H7.08682C6.9875 21.4826 6.93359 21.7947 6.93359 22.1191C6.93359 23.7076 8.22593 25 9.81445 25C11.403 25 12.6953 23.7076 12.6953 22.1191C12.6953 21.7947 12.6414 21.4826 12.5421 21.1914H16.7548C16.6555 21.4826 16.6016 21.7947 16.6016 22.1191C16.6016 23.7076 17.8939 25 19.4825 25C21.071 25 22.3633 23.7076 22.3633 22.1191C22.3633 20.5307 21.071 19.2383 19.4825 19.2383H6.68945C6.15098 19.2383 5.71289 18.8002 5.71289 18.2617C5.71289 18.2536 5.71279 18.2454 5.7126 18.2373C5.71279 18.2292 5.71289 18.221 5.71289 18.2129C5.71289 17.6744 6.15098 17.2363 6.68945 17.2363H19.1568C20.8903 17.2363 22.4812 16.1638 23.2098 14.5038C23.4266 14.01 23.202 13.4339 22.7081 13.2171C22.2143 13.0003 21.6382 13.225 21.4214 13.7188C21.0107 14.6545 20.1006 15.2832 19.1568 15.2832H7.41899L6.54736 7.27539H22.8222L22.3443 9.56621C22.2342 10.0942 22.573 10.6115 23.1009 10.7216C23.1682 10.7356 23.2352 10.7424 23.3013 10.7424C23.7541 10.7424 24.1602 10.4258 24.2563 9.96504L24.9794 6.49824C25.0395 6.21045 24.9667 5.91094 24.7812 5.68281ZM19.4824 21.1914C19.994 21.1914 20.4102 21.6076 20.4102 22.1191C20.4102 22.6307 19.994 23.0469 19.4824 23.0469C18.9709 23.0469 18.5547 22.6307 18.5547 22.1191C18.5547 21.6076 18.9709 21.1914 19.4824 21.1914ZM9.81445 21.1914C10.326 21.1914 10.7422 21.6076 10.7422 22.1191C10.7422 22.6307 10.326 23.0469 9.81445 23.0469C9.30288 23.0469 8.88672 22.6307 8.88672 22.1191C8.88672 21.6076 9.30288 21.1914 9.81445 21.1914Z" fill="white"/>
<defs>
<linearGradient id="paint0_linear_1_15929" x1="34.6528" y1="0.585938" x2="60.6076" y2="0.585938" gradientUnits="userSpaceOnUse">
<stop stop-color="#E1C75C"/>
<stop offset="1" stop-color="#C2A013"/>
</linearGradient>
</defs>
</svg>
