<svg width="25" height="25" viewBox="0 0 25 25" fill="none" xmlns="http://www.w3.org/2000/svg">
<path d="M24.7812 5.68281C24.5958 5.45469 24.3174 5.32227 24.0234 5.32227H6.33477L6.26231 4.65664L6.25972 4.63525C5.91304 1.99277 3.64175 0 0.976563 0C0.437207 0 0 0.437207 0 0.976562C0 1.51592 0.437207 1.95312 0.976563 1.95312C2.66143 1.95312 4.0978 3.2104 4.32188 4.8793L5.48267 15.5434C4.46753 16.0042 3.75977 17.0274 3.75977 18.2129C3.75977 18.221 3.75986 18.2292 3.76006 18.2373C3.75986 18.2454 3.75977 18.2536 3.75977 18.2617C3.75977 19.8771 5.07402 21.1914 6.68945 21.1914H7.08682C6.9875 21.4826 6.93359 21.7947 6.93359 22.1191C6.93359 23.7076 8.22593 25 9.81446 25C11.403 25 12.6953 23.7076 12.6953 22.1191C12.6953 21.7947 12.6414 21.4826 12.5421 21.1914H16.7548C16.6555 21.4826 16.6016 21.7947 16.6016 22.1191C16.6016 23.7076 17.8939 25 19.4825 25C21.071 25 22.3633 23.7076 22.3633 22.1191C22.3633 20.5307 21.071 19.2383 19.4825 19.2383H6.68945C6.15098 19.2383 5.71289 18.8002 5.71289 18.2617C5.71289 18.2536 5.71279 18.2454 5.7126 18.2373C5.71279 18.2292 5.71289 18.221 5.71289 18.2129C5.71289 17.6744 6.15098 17.2363 6.68945 17.2363H19.1568C20.8903 17.2363 22.4812 16.1638 23.2098 14.5038C23.4266 14.01 23.202 13.4339 22.7081 13.2171C22.2143 13.0003 21.6382 13.225 21.4214 13.7188C21.0107 14.6545 20.1006 15.2832 19.1568 15.2832H7.41899L6.54736 7.27539H22.8222L22.3443 9.56621C22.2342 10.0942 22.573 10.6115 23.1009 10.7216C23.1682 10.7356 23.2352 10.7424 23.3013 10.7424C23.7541 10.7424 24.1602 10.4258 24.2563 9.96504L24.9794 6.49824C25.0395 6.21045 24.9667 5.91094 24.7812 5.68281ZM19.4824 21.1914C19.994 21.1914 20.4102 21.6076 20.4102 22.1191C20.4102 22.6307 19.994 23.0469 19.4824 23.0469C18.9709 23.0469 18.5547 22.6307 18.5547 22.1191C18.5547 21.6076 18.9709 21.1914 19.4824 21.1914ZM9.81446 21.1914C10.326 21.1914 10.7422 21.6076 10.7422 22.1191C10.7422 22.6307 10.326 23.0469 9.81446 23.0469C9.30288 23.0469 8.88672 22.6307 8.88672 22.1191C8.88672 21.6076 9.30288 21.1914 9.81446 21.1914Z" fill="white"/>
</svg>
