<svg width="151" height="25" viewBox="0 0 151 25" fill="none" xmlns="http://www.w3.org/2000/svg">
<path d="M24.942 8.80321L17.4475 7.66263L14.0972 0.550211C14.0057 0.355478 13.8552 0.197836 13.6692 0.102015C13.2028 -0.139084 12.6361 0.0618317 12.4029 0.550211L9.05266 7.66263L1.55815 8.80321C1.35152 8.83412 1.16261 8.93612 1.01797 9.09067C0.843116 9.27887 0.746762 9.53207 0.750083 9.79463C0.753404 10.0572 0.856128 10.3076 1.03568 10.4909L6.45806 16.0269L5.177 23.8441C5.14696 24.0259 5.16617 24.2129 5.23247 24.3839C5.29876 24.5549 5.40948 24.703 5.55207 24.8115C5.69467 24.9199 5.86342 24.9844 6.03921 24.9975C6.21499 25.0106 6.39077 24.9719 6.54661 24.8857L13.2501 21.1951L19.9535 24.8857C20.1365 24.9877 20.349 25.0217 20.5527 24.9846C21.0663 24.8919 21.4117 24.3819 21.3231 23.8441L20.042 16.0269L25.4644 10.4909C25.612 10.3394 25.7094 10.1416 25.7389 9.92525C25.8186 9.38432 25.4585 8.88357 24.942 8.80321Z" fill="#CEAF2E"/>
<path d="M56.192 8.80321L48.6975 7.66263L45.3472 0.550211C45.2557 0.355478 45.1052 0.197836 44.9192 0.102015C44.4528 -0.139084 43.8861 0.0618317 43.6529 0.550211L40.3027 7.66263L32.8081 8.80321C32.6015 8.83412 32.4126 8.93612 32.268 9.09067C32.0931 9.27887 31.9968 9.53207 32.0001 9.79463C32.0034 10.0572 32.1061 10.3076 32.2857 10.4909L37.7081 16.0269L36.427 23.8441C36.397 24.0259 36.4162 24.2129 36.4825 24.3839C36.5488 24.5549 36.6595 24.703 36.8021 24.8115C36.9447 24.9199 37.1134 24.9844 37.2892 24.9975C37.465 25.0106 37.6408 24.9719 37.7966 24.8857L44.5001 21.1951L51.2035 24.8857C51.3865 24.9877 51.599 25.0217 51.8027 24.9846C52.3163 24.8919 52.6617 24.3819 52.5731 23.8441L51.292 16.0269L56.7144 10.4909C56.862 10.3394 56.9594 10.1416 56.9889 9.92525C57.0686 9.38432 56.7085 8.88357 56.192 8.80321Z" fill="#CEAF2E"/>
<path d="M87.442 8.80321L79.9475 7.66263L76.5972 0.550211C76.5057 0.355478 76.3552 0.197836 76.1692 0.102015C75.7028 -0.139084 75.1361 0.0618317 74.9029 0.550211L71.5527 7.66263L64.0581 8.80321C63.8515 8.83412 63.6626 8.93612 63.518 9.09067C63.3431 9.27887 63.2468 9.53207 63.2501 9.79463C63.2534 10.0572 63.3561 10.3076 63.5357 10.4909L68.9581 16.0269L67.677 23.8441C67.647 24.0259 67.6662 24.2129 67.7325 24.3839C67.7988 24.5549 67.9095 24.703 68.0521 24.8115C68.1947 24.9199 68.3634 24.9844 68.5392 24.9975C68.715 25.0106 68.8908 24.9719 69.0466 24.8857L75.7501 21.1951L82.4535 24.8857C82.6365 24.9877 82.849 25.0217 83.0527 24.9846C83.5663 24.8919 83.9117 24.3819 83.8231 23.8441L82.542 16.0269L87.9644 10.4909C88.112 10.3394 88.2094 10.1416 88.2389 9.92525C88.3186 9.38432 87.9585 8.88357 87.442 8.80321Z" fill="#CEAF2E"/>
<path d="M118.692 8.80321L111.197 7.66263L107.847 0.550211C107.756 0.355478 107.605 0.197836 107.419 0.102015C106.953 -0.139084 106.386 0.0618317 106.153 0.550211L102.803 7.66263L95.3081 8.80321C95.1015 8.83412 94.9126 8.93612 94.768 9.09067C94.5931 9.27887 94.4968 9.53207 94.5001 9.79463C94.5034 10.0572 94.6061 10.3076 94.7857 10.4909L100.208 16.0269L98.927 23.8441C98.897 24.0259 98.9162 24.2129 98.9825 24.3839C99.0488 24.5549 99.1595 24.703 99.3021 24.8115C99.4447 24.9199 99.6134 24.9844 99.7892 24.9975C99.965 25.0106 100.141 24.9719 100.297 24.8857L107 21.1951L113.703 24.8857C113.887 24.9877 114.099 25.0217 114.303 24.9846C114.816 24.8919 115.162 24.3819 115.073 23.8441L113.792 16.0269L119.214 10.4909C119.362 10.3394 119.459 10.1416 119.489 9.92525C119.569 9.38432 119.209 8.88357 118.692 8.80321Z" fill="#CEAF2E"/>
<path d="M149.942 8.80321L142.447 7.66263L139.097 0.550211C139.006 0.355478 138.855 0.197836 138.669 0.102015C138.203 -0.139084 137.636 0.0618316 137.403 0.550211L134.053 7.66263L126.558 8.80321C126.352 8.83412 126.163 8.93612 126.018 9.09067C125.843 9.27887 125.747 9.53207 125.75 9.79462C125.753 10.0572 125.856 10.3076 126.036 10.4909L131.458 16.0269L130.177 23.8441C130.147 24.0259 130.166 24.2129 130.232 24.3839C130.299 24.5549 130.409 24.703 130.552 24.8115C130.695 24.9199 130.863 24.9844 131.039 24.9975C131.215 25.0106 131.391 24.9719 131.547 24.8857L138.25 21.1951L144.953 24.8857C145.137 24.9877 145.349 25.0217 145.553 24.9846C146.066 24.8919 146.412 24.3819 146.323 23.8441L145.042 16.0269L150.464 10.4909C150.612 10.3394 150.709 10.1416 150.739 9.92524C150.819 9.38432 150.459 8.88357 149.942 8.80321Z" fill="#CEAF2E"/>
<mask id="mask0_1_15918" style="mask-type:alpha" maskUnits="userSpaceOnUse" x="138" y="0" width="13" height="25">
<rect x="138.25" width="12.5" height="25" fill="#D9D9D9"/>
</mask>
<g mask="url(#mask0_1_15918)">
<path d="M149.942 8.80321L142.447 7.66263L139.097 0.550211C139.006 0.355478 138.855 0.197836 138.669 0.102015C138.203 -0.139084 137.636 0.0618316 137.403 0.550211L134.053 7.66263L126.558 8.80321C126.352 8.83412 126.163 8.93612 126.018 9.09067C125.843 9.27887 125.747 9.53207 125.75 9.79462C125.753 10.0572 125.856 10.3076 126.036 10.4909L131.458 16.0269L130.177 23.8441C130.147 24.0259 130.166 24.2129 130.232 24.3839C130.299 24.5549 130.409 24.703 130.552 24.8115C130.695 24.9199 130.863 24.9844 131.039 24.9975C131.215 25.0106 131.391 24.9719 131.547 24.8857L138.25 21.1951L144.953 24.8857C145.137 24.9877 145.349 25.0217 145.553 24.9846C146.066 24.8919 146.412 24.3819 146.323 23.8441L145.042 16.0269L150.464 10.4909C150.612 10.3394 150.709 10.1416 150.739 9.92524C150.819 9.38432 150.459 8.88357 149.942 8.80321Z" fill="white"/>
</g>
</svg>
