<svg width="25" height="25" viewBox="0 0 25 25" fill="none" xmlns="http://www.w3.org/2000/svg">
<path d="M23.6244 1.3752C22.7079 0.458456 21.6037 0 20.3125 0H4.68746C3.39635 0 2.29211 0.458456 1.3752 1.3752C0.458456 2.29211 0 3.39629 0 4.68746V20.3124C0 21.6034 0.458456 22.7077 1.3752 23.6246C2.29211 24.5415 3.39635 25 4.68746 25H20.3124C21.6035 25 22.7077 24.5415 23.6242 23.6246C24.5411 22.7077 24.9996 21.6035 24.9996 20.3124V4.68746C24.9995 3.39629 24.5411 2.29194 23.6244 1.3752ZM14.7624 3.61304H15.853V8.03991C15.853 8.30044 15.8581 8.44153 15.869 8.46325C15.8799 8.6369 15.967 8.72361 16.1296 8.72361C16.3466 8.72361 16.5747 8.55555 16.8132 8.2192V3.61304H17.9037V9.63516H16.8128V8.98385C16.3679 9.47201 15.9503 9.7164 15.5597 9.7164C15.2127 9.7164 14.9794 9.57 14.8598 9.27698C14.7946 9.08179 14.7624 8.7833 14.7624 8.38173V3.61304ZM10.6446 5.56624C10.6446 4.93698 10.7586 4.46485 10.9864 4.15028C11.2793 3.738 11.7024 3.53174 12.2558 3.53174C12.7876 3.53174 13.2109 3.73817 13.5252 4.15028C13.7532 4.4649 13.8672 4.93698 13.8672 5.56624V7.68219C13.8672 8.33328 13.7532 8.8053 13.5252 9.09821C13.2109 9.51071 12.7876 9.71685 12.2558 9.71685C11.7024 9.71685 11.2793 9.51054 10.9864 9.09821C10.7586 8.78352 10.6446 8.3115 10.6446 7.68219V5.56624ZM7.71474 1.54599L8.57744 4.72001L9.40747 1.54599H10.6282L9.16331 6.36372H9.16354V9.63516H7.95913V6.36372C7.83965 5.76696 7.59012 4.90973 7.2104 3.79221C6.96087 3.04347 6.83603 2.6691 6.83603 2.6691L6.44524 1.54599H7.71474ZM21.1265 21.1914C21.018 21.6578 20.7874 22.0537 20.4345 22.3796C20.0821 22.705 19.6727 22.895 19.206 22.9494C17.7196 23.112 15.484 23.1934 12.5003 23.1934C9.51624 23.1934 7.28103 23.1119 5.79455 22.9494C5.32806 22.895 4.91851 22.705 4.56575 22.3796C4.2131 22.0537 3.98262 21.6578 3.87407 21.1914C3.65716 20.2798 3.54867 18.8691 3.54867 16.9596C3.54867 15.082 3.65716 13.6719 3.87407 12.7277C3.98267 12.2503 4.21316 11.8515 4.56575 11.5312C4.91851 11.211 5.33342 11.0238 5.81091 10.9697C7.28639 10.8067 9.51624 10.7254 12.5003 10.7254C15.4952 10.7254 17.7305 10.8069 19.206 10.9697C19.6727 11.024 20.0845 11.211 20.4426 11.5312C20.8008 11.8513 21.0344 12.25 21.1428 12.7277C21.3486 13.6283 21.4518 15.0388 21.4518 16.9596C21.4519 18.869 21.3434 20.2795 21.1265 21.1914Z" fill="white"/>
<path d="M4.8826 13.9485H6.15216V20.8332H7.35656V13.9485H8.65868V12.8092H4.8826V13.9485Z" fill="white"/>
<path d="M10.8398 19.4172C10.6011 19.7534 10.3731 19.9216 10.1562 19.9216C10.0043 19.9216 9.92288 19.8402 9.91205 19.6775C9.90116 19.6559 9.89569 19.5148 9.89569 19.2542V14.8596H8.82149V19.5796C8.82149 19.992 8.8541 20.285 8.91926 20.4583C9.01686 20.7622 9.24483 20.914 9.60284 20.914C10.0043 20.914 10.4166 20.6699 10.8398 20.1816V20.8328H11.9301V14.86H10.8398V19.4172Z" fill="white"/>
<path d="M15.0555 14.7784C14.6649 14.7784 14.2958 14.9954 13.9489 15.4296V12.8092H12.8584V20.8332H13.9489V20.2472C14.3067 20.692 14.6761 20.9144 15.0555 20.9144C15.5005 20.9144 15.7879 20.6865 15.9178 20.2308C15.9939 20.0029 16.0317 19.6069 16.0317 19.0427V16.6665C16.0317 16.0913 15.9935 15.6898 15.9178 15.462C15.7878 15.0063 15.5005 14.7784 15.0555 14.7784ZM14.9577 19.1243C14.9577 19.6559 14.8005 19.9214 14.4857 19.9218C14.3015 19.9218 14.1222 19.8348 13.9485 19.6612V16.0153C14.1222 15.8421 14.3015 15.7551 14.4857 15.7551C14.8005 15.7551 14.9577 16.0261 14.9577 16.5687V19.1243Z" fill="white"/>
<path d="M19.01 19.1161C19.01 19.23 19.0072 19.3193 19.0022 19.3845C18.9969 19.4497 18.9939 19.4877 18.9939 19.4984C18.9289 19.7803 18.766 19.9214 18.5056 19.9214C18.1367 19.9214 17.9521 19.6447 17.9521 19.0914V18.0337H20.1169V16.7964C20.1169 16.1672 20.0032 15.7008 19.7751 15.3968C19.4825 14.9846 19.0591 14.7782 18.5056 14.7782C17.9521 14.7782 17.5183 14.9845 17.2034 15.3968C16.9864 15.6898 16.878 16.1567 16.878 16.7964V18.8961C16.878 19.5364 16.9919 20.0031 17.2198 20.2961C17.5346 20.7083 17.974 20.9148 18.5384 20.9148C19.1135 20.9148 19.5474 20.6978 19.8406 20.2636C19.9707 20.0681 20.0525 19.8512 20.0849 19.6125C20.1063 19.4606 20.1172 19.2272 20.1172 18.9126V18.7661H19.0103V19.1161H19.01V19.1161ZM17.9525 16.585C17.9525 16.0317 18.1317 15.7551 18.4897 15.7551C18.8478 15.7551 19.0267 16.0317 19.0267 16.585V17.1386H17.9525V16.585Z" fill="white"/>
<path d="M12.2558 8.72361C12.603 8.72361 12.7765 8.44706 12.7765 7.89369V5.35457C12.7765 4.79047 12.603 4.50817 12.2558 4.50817C11.9086 4.50817 11.735 4.79047 11.735 5.35457V7.89369C11.735 8.44689 11.9086 8.72361 12.2558 8.72361Z" fill="white"/>
</svg>
